<svg xmlns="http://www.w3.org/2000/svg" xmlns:v="https://svgstorm.com"
viewBox = "0 0 77 93"
width="77"
height="93">
<g fill="None" fill-opacity="0.0" stroke="#000000" stroke-opacity="0.00" stroke-width="0.3"><path d="
M 0.00 93.00 
L 77.00 93.00
L 77.00 0.00
L 28.00 0.00
C 27.30 1.48 28.50 2.16 29.00 3.00
C 30.29 4.30 32.71 2.27 32.00 6.00
C 31.91 6.48 32.00 7.00 32.00 7.00
C 32.09 8.41 32.70 10.34 34.00 11.00
C 34.65 9.26 36.50 8.73 38.00 8.00
C 46.35 3.95 55.24 4.79 64.00 7.00
C 61.98 11.82 67.92 9.67 68.00 13.00
C 69.07 14.44 68.49 13.87 70.00 15.00
C 72.10 16.56 71.92 16.69 72.00 20.00
C 72.02 20.83 72.42 23.31 72.00 24.00
C 72.99 27.17 71.90 28.76 69.00 29.00
C 68.65 29.03 67.99 29.67 68.00 30.00
C 68.04 31.33 67.97 32.67 68.00 34.00
C 65.39 33.33 63.55 35.34 61.00 35.00
C 60.18 37.28 58.02 36.64 56.00 37.00
C 56.26 37.21 56.76 37.74 57.00 38.00
C 59.86 38.69 58.35 38.28 60.00 40.00
C 60.10 40.03 61.62 40.85 62.00 41.00
C 64.68 42.05 64.00 44.01 64.00 47.00
C 63.00 47.00 62.00 47.00 61.00 47.00
C 60.62 48.48 59.99 49.93 60.00 52.00
C 60.00 52.39 60.26 54.76 60.00 55.00
C 60.86 57.47 59.63 59.43 57.00 59.00
C 56.51 58.92 56.00 59.00 56.00 59.00
C 55.74 59.24 56.00 61.61 56.00 62.00
C 56.00 62.50 55.94 63.51 56.00 64.00
C 56.25 65.97 55.82 68.02 56.00 70.00
C 55.00 70.00 54.00 70.00 53.00 70.00
C 52.94 70.12 52.11 71.84 52.00 72.00
C 52.54 75.04 55.11 72.95 56.00 76.00
C 56.40 77.39 56.00 79.54 56.00 81.00
C 56.00 81.39 56.26 83.76 56.00 84.00
C 56.03 85.00 55.97 86.00 56.00 87.00
C 52.89 86.87 52.04 82.88 50.00 81.00
C 49.58 80.23 50.34 78.81 50.00 78.00
C 48.60 79.21 46.74 78.98 45.00 79.00
C 44.35 82.66 39.05 83.17 36.00 84.00
C 33.82 84.89 32.02 86.00 28.00 86.00
C 26.72 86.15 26.28 86.21 25.00 86.00
C 22.71 86.15 19.20 86.22 18.00 84.00
C 5.89 85.50 -4.98 54.65 10.00 51.00
C 11.89 50.54 14.08 51.35 16.00 51.00
C 16.00 52.33 16.00 53.67 16.00 55.00
C 16.02 55.09 17.50 54.96 18.00 55.00
C 21.21 55.26 19.84 56.11 20.00 58.00
C 20.48 59.51 20.17 59.77 21.00 61.00
C 22.54 62.36 23.47 59.96 24.00 63.00
C 24.50 62.99 25.00 63.00 25.00 63.00
C 25.85 63.00 28.29 62.57 29.00 63.00
C 28.34 61.74 26.94 59.95 26.00 59.00
C 24.91 57.90 23.88 57.32 23.00 56.00
C 21.84 54.26 20.72 51.96 20.00 50.00
C 19.55 48.78 19.19 47.35 19.00 46.00
C 18.53 42.69 18.66 38.33 19.00 35.00
C 19.26 32.43 19.98 30.37 21.00 28.00
C 21.06 27.96 16.93 27.71 16.00 28.00
C 14.37 25.51 15.36 21.31 12.00 20.00
C 11.56 19.72 10.30 19.31 10.00 19.00
C 5.35 16.01 11.99 13.20 15.00 13.00
C 15.43 10.69 13.66 7.19 17.00 7.00
C 20.86 6.43 20.03 9.97 22.00 12.00
C 22.26 8.90 25.04 8.07 26.00 6.00
C 26.62 4.16 26.64 1.97 27.00 0.00
L 0.00 0.00
L 0.00 93.00
M 68.00 66.00 
C 68.24 66.27 68.72 66.77 69.00 67.00
C 70.54 67.37 72.24 66.53 72.00 69.00
C 71.95 69.50 72.00 70.00 72.00 70.00
C 72.08 72.94 70.86 73.29 68.00 73.00
C 68.00 75.00 68.00 77.00 68.00 79.00
C 67.67 79.87 68.27 81.10 68.00 82.00
C 65.65 82.76 64.73 80.75 64.00 79.00
C 63.91 78.52 64.00 78.00 64.00 78.00
C 63.32 77.09 62.62 76.11 62.00 75.00
C 61.82 74.67 61.35 74.10 61.00 74.00
C 59.98 73.70 59.25 72.62 58.00 73.00
C 60.26 68.52 62.12 60.31 68.00 60.00
C 68.00 62.00 68.00 64.00 68.00 66.00 Z"/>
</g>
<g fill="None" fill-opacity="0.0" stroke="#FFDD8C" stroke-opacity="0.87" stroke-width="0.3"><path d="
M 26.00 6.00 
C 25.78 6.66 25.30 7.37 25.00 8.00
C 25.17 8.97 27.78 13.04 29.00 13.00
C 28.47 10.54 29.58 7.87 32.00 7.00
C 32.00 7.00 31.91 6.48 32.00 6.00
C 30.69 5.03 29.83 4.39 29.00 3.00
C 28.50 2.16 27.30 1.48 28.00 0.00
L 27.00 0.00
C 26.64 1.97 26.62 4.16 26.00 6.00 Z"/>
</g>
<g fill="None" fill-opacity="0.0" stroke="#FFFEFD" stroke-opacity="0.35" stroke-width="0.3"><path d="
M 32.00 6.00 
C 32.71 2.27 30.29 4.30 29.00 3.00
C 29.83 4.39 30.69 5.03 32.00 6.00 Z"/>
</g>
<g fill="None" fill-opacity="0.0" stroke="#C6E2F9" stroke-opacity="0.98" stroke-width="0.3"><path d="
M 38.00 8.00 
C 36.70 8.85 35.31 10.17 34.00 11.00
C 29.84 13.63 25.12 18.28 23.00 23.00
C 22.32 24.52 21.58 26.66 21.00 28.00
C 19.98 30.37 19.26 32.43 19.00 35.00
C 18.99 37.40 18.92 43.72 19.00 46.00
C 19.19 47.35 19.55 48.78 20.00 50.00
C 21.16 52.02 24.93 55.77 27.00 58.00
C 33.23 60.05 38.36 55.49 43.00 53.00
C 41.34 58.15 35.90 64.57 30.00 61.00
C 30.24 61.18 30.00 62.00 30.00 62.00
C 29.99 61.89 29.78 64.84 29.00 64.00
C 27.55 64.66 25.86 63.88 25.00 63.00
C 25.00 63.00 24.50 62.99 24.00 63.00
C 22.26 63.05 21.84 62.25 21.00 61.00
C 20.17 59.77 20.48 59.51 20.00 58.00
C 19.95 57.86 19.00 58.00 19.00 58.00
C 17.59 62.71 16.03 55.06 16.00 55.00
C 16.00 53.67 16.00 52.33 16.00 51.00
C 14.08 51.35 11.89 50.54 10.00 51.00
C -0.84 54.86 5.65 71.49 10.00 77.00
C 10.59 77.49 11.34 77.68 12.00 78.00
C 24.83 84.30 46.89 77.28 50.00 62.00
C 49.86 61.76 46.85 61.78 48.00 60.00
C 53.06 62.05 50.31 52.63 54.00 55.00
C 53.68 49.99 58.54 44.85 58.00 40.00
C 57.52 39.81 57.28 38.30 57.00 38.00
C 56.76 37.74 56.26 37.21 56.00 37.00
C 53.29 34.83 51.59 38.04 48.77 39.77 C 45.95 41.50 42.67 40.41 40.00 39.00
C 38.23 38.06 37.07 38.10 36.00 36.00
C 33.32 32.08 35.94 25.91 38.75 22.75 C 41.57 19.60 50.53 17.83 51.00 24.00
C 51.04 24.50 51.00 25.50 51.00 26.00
C 51.00 26.50 50.93 27.51 51.00 28.00
C 51.30 30.14 52.58 29.74 54.00 31.00
C 57.73 31.60 63.03 26.32 64.92 23.92 C 66.81 21.52 67.15 11.12 68.00 13.00
C 67.92 9.67 61.98 11.82 64.00 7.00
C 55.24 4.79 46.35 3.95 38.00 8.00
M 29.00 19.00 
C 30.10 21.25 30.31 24.96 34.00 24.00
C 31.82 25.58 29.02 27.62 30.00 31.00
C 27.07 31.15 27.92 25.26 24.00 26.00
C 25.28 23.78 28.14 22.07 29.00 19.00 Z"/>
</g>
<g fill="None" fill-opacity="0.0" stroke="#FFFDFA" stroke-opacity="0.32" stroke-width="0.3"><path d="
M 22.00 12.00 
C 23.18 13.22 23.71 10.70 25.00 8.00
C 25.30 7.37 25.78 6.66 26.00 6.00
C 25.04 8.07 22.26 8.90 22.00 12.00 Z"/>
</g>
<g fill="None" fill-opacity="0.0" stroke="#FFF7E3" stroke-opacity="0.40" stroke-width="0.3"><path d="
M 15.00 13.00 
C 15.93 11.57 16.23 9.49 17.00 8.00
C 16.79 7.61 17.00 7.00 17.00 7.00
C 13.66 7.19 15.43 10.69 15.00 13.00 Z"/>
</g>
<g fill="None" fill-opacity="0.0" stroke="#FEFDFA" stroke-opacity="0.83" stroke-width="0.3"><path d="
M 17.00 8.00 
C 18.98 11.79 21.08 15.02 25.00 17.00
C 19.19 15.70 18.25 22.19 17.00 26.00
C 17.10 26.03 21.04 26.33 19.92 23.92 C 18.79 21.50 23.00 23.00 23.00 23.00
C 25.12 18.28 29.84 13.63 34.00 11.00
C 32.70 10.34 32.09 8.41 32.00 7.00
C 29.58 7.87 28.47 10.54 29.00 13.00
C 27.78 13.04 25.17 8.97 25.00 8.00
C 23.71 10.70 23.18 13.22 22.00 12.00
C 20.03 9.97 20.86 6.43 17.00 7.00
C 17.00 7.00 16.79 7.61 17.00 8.00 Z"/>
</g>
<g fill="None" fill-opacity="0.0" stroke="#FFD56F" stroke-opacity="0.98" stroke-width="0.3"><path d="
M 15.00 13.00 
C 13.65 15.07 11.28 15.16 10.00 17.00
C 10.93 16.74 13.33 19.21 14.00 20.00
C 15.85 21.27 15.29 25.47 17.00 26.00
C 18.25 22.19 19.19 15.70 25.00 17.00
C 21.08 15.02 18.98 11.79 17.00 8.00
C 16.23 9.49 15.93 11.57 15.00 13.00 Z"/>
</g>
<g fill="None" fill-opacity="0.0" stroke="#FCFDFF" stroke-opacity="0.15" stroke-width="0.3"><path d="
M 34.00 11.00 
C 35.31 10.17 36.70 8.85 38.00 8.00
C 36.50 8.73 34.65 9.26 34.00 11.00 Z"/>
</g>
<g fill="None" fill-opacity="0.0" stroke="#586FC6" stroke-opacity="1.00" stroke-width="0.3"><path d="
M 54.00 31.00 
C 56.61 33.30 56.14 34.18 61.00 34.00
C 63.33 32.66 65.96 31.80 68.00 30.00
C 67.99 29.67 68.65 29.03 69.00 29.00
C 69.78 27.79 69.87 25.48 70.00 24.00
C 70.18 22.04 70.00 19.97 70.00 18.00
C 70.00 17.28 70.29 15.65 70.00 15.00
C 68.49 13.87 69.07 14.44 68.00 13.00
C 67.15 11.12 66.81 21.52 64.92 23.92 C 63.03 26.32 57.73 31.60 54.00 31.00 Z"/>
</g>
<g fill="None" fill-opacity="0.0" stroke="#FFFDF9" stroke-opacity="0.16" stroke-width="0.3"><path d="
M 10.00 19.00 
C 8.92 17.88 9.45 17.79 10.00 17.00
C 11.28 15.16 13.65 15.07 15.00 13.00
C 11.99 13.20 5.35 16.01 10.00 19.00 Z"/>
</g>
<g fill="None" fill-opacity="0.0" stroke="#F8F9FC" stroke-opacity="0.40" stroke-width="0.3"><path d="
M 70.00 18.00 
C 70.14 18.51 70.87 19.03 71.00 20.00
C 71.20 20.24 72.00 20.00 72.00 20.00
C 71.92 16.69 72.10 16.56 70.00 15.00
C 70.29 15.65 70.00 17.28 70.00 18.00 Z"/>
</g>
<g fill="None" fill-opacity="0.0" stroke="#FFFDF9" stroke-opacity="0.66" stroke-width="0.3"><path d="
M 10.00 19.00 
C 10.30 19.31 11.56 19.72 12.00 20.00
C 12.27 20.06 12.90 19.24 14.00 20.00
C 13.33 19.21 10.93 16.74 10.00 17.00
C 9.45 17.79 8.92 17.88 10.00 19.00 Z"/>
</g>
<g fill="None" fill-opacity="0.0" stroke="#8F9ED9" stroke-opacity="1.00" stroke-width="0.3"><path d="
M 70.00 24.00 
C 70.03 23.89 71.00 24.00 71.00 24.00
C 70.50 23.18 71.14 20.97 71.00 20.00
C 70.87 19.03 70.14 18.51 70.00 18.00
C 70.00 19.97 70.18 22.04 70.00 24.00 Z"/>
</g>
<g fill="None" fill-opacity="0.0" stroke="#FEFDFC" stroke-opacity="0.36" stroke-width="0.3"><path d="
M 12.00 20.00 
C 15.36 21.31 14.37 25.51 16.00 28.00
C 16.93 27.71 21.06 27.96 21.00 28.00
C 21.58 26.66 22.32 24.52 23.00 23.00
C 23.00 23.00 18.79 21.50 19.92 23.92 C 21.04 26.33 17.10 26.03 17.00 26.00
C 15.29 25.47 15.85 21.27 14.00 20.00
C 12.90 19.24 12.27 20.06 12.00 20.00 Z"/>
</g>
<g fill="None" fill-opacity="0.0" stroke="#F5D379" stroke-opacity="1.00" stroke-width="0.3"><path d="
M 29.00 19.00 
C 28.14 22.07 25.28 23.78 24.00 26.00
C 27.92 25.26 27.07 31.15 30.00 31.00
C 29.02 27.62 31.82 25.58 34.00 24.00
C 30.31 24.96 30.10 21.25 29.00 19.00 Z"/>
</g>
<g fill="None" fill-opacity="0.0" stroke="#576EC6" stroke-opacity="1.00" stroke-width="0.3"><path d="
M 36.00 36.00 
C 36.53 36.77 38.25 37.50 39.00 38.00
C 37.45 32.60 44.02 20.69 51.00 24.00
C 50.53 17.83 41.57 19.60 38.75 22.75 C 35.94 25.91 33.32 32.08 36.00 36.00 Z"/>
</g>
<g fill="None" fill-opacity="0.0" stroke="#FFFFFF" stroke-opacity="0.88" stroke-width="0.3"><path d="
M 71.00 24.00 
C 71.50 24.00 72.00 24.00 72.00 24.00
C 72.42 23.31 72.02 20.83 72.00 20.00
C 72.00 20.00 71.20 20.24 71.00 20.00
C 71.14 20.97 70.50 23.18 71.00 24.00 Z"/>
</g>
<g fill="None" fill-opacity="0.0" stroke="#F8FAFD" stroke-opacity="0.93" stroke-width="0.3"><path d="
M 39.00 38.00 
C 39.31 38.21 39.79 38.70 40.00 39.00
C 42.67 40.41 45.95 41.50 48.77 39.77 C 51.59 38.04 53.29 34.83 56.00 37.00
C 58.02 36.64 60.18 37.28 61.00 35.00
C 61.16 34.56 61.00 34.00 61.00 34.00
C 56.14 34.18 56.61 33.30 54.00 31.00
C 52.58 29.74 51.30 30.14 51.00 28.00
C 49.28 30.53 44.93 30.65 43.00 33.00
C 41.99 28.45 46.74 24.86 51.00 26.00
C 51.00 25.50 51.04 24.50 51.00 24.00
C 44.02 20.69 37.45 32.60 39.00 38.00
M 48.00 38.00 
C 43.64 43.38 39.51 36.07 48.00 38.00 Z"/>
</g>
<g fill="None" fill-opacity="0.0" stroke="#F5F7FC" stroke-opacity="0.63" stroke-width="0.3"><path d="
M 69.00 29.00 
C 71.90 28.76 72.99 27.17 72.00 24.00
C 72.00 24.00 71.50 24.00 71.00 24.00
C 71.00 24.00 70.03 23.89 70.00 24.00
C 69.87 25.48 69.78 27.79 69.00 29.00 Z"/>
</g>
<g fill="None" fill-opacity="0.0" stroke="#FDFEFE" stroke-opacity="0.61" stroke-width="0.3"><path d="
M 51.00 28.00 
C 50.93 27.51 51.00 26.50 51.00 26.00
C 46.74 24.86 41.99 28.45 43.00 33.00
C 44.93 30.65 49.28 30.53 51.00 28.00 Z"/>
</g>
<g fill="None" fill-opacity="0.0" stroke="#F5F7FC" stroke-opacity="0.69" stroke-width="0.3"><path d="
M 61.00 34.00 
C 61.00 34.00 61.16 34.56 61.00 35.00
C 63.55 35.34 65.39 33.33 68.00 34.00
C 67.97 32.67 68.04 31.33 68.00 30.00
C 65.96 31.80 63.33 32.66 61.00 34.00 Z"/>
</g>
<g fill="None" fill-opacity="0.0" stroke="#E9F3FD" stroke-opacity="0.63" stroke-width="0.3"><path d="
M 19.00 46.00 
C 18.92 43.72 18.99 37.40 19.00 35.00
C 18.66 38.33 18.53 42.69 19.00 46.00 Z"/>
</g>
<g fill="None" fill-opacity="0.0" stroke="#89A0DB" stroke-opacity="1.00" stroke-width="0.3"><path d="
M 40.00 39.00 
C 39.79 38.70 39.31 38.21 39.00 38.00
C 38.25 37.50 36.53 36.77 36.00 36.00
C 37.07 38.10 38.23 38.06 40.00 39.00 Z"/>
</g>
<g fill="None" fill-opacity="0.0" stroke="#FFFFFF" stroke-opacity="0.38" stroke-width="0.3"><path d="
M 48.00 38.00 
C 39.51 36.07 43.64 43.38 48.00 38.00 Z"/>
</g>
<g fill="None" fill-opacity="0.0" stroke="#EBF0F9" stroke-opacity="0.44" stroke-width="0.3"><path d="
M 58.00 40.00 
C 58.43 40.17 59.53 39.87 60.00 40.00
C 58.35 38.28 59.86 38.69 57.00 38.00
C 57.28 38.30 57.52 39.81 58.00 40.00 Z"/>
</g>
<g fill="None" fill-opacity="0.0" stroke="#566CC5" stroke-opacity="1.00" stroke-width="0.3"><path d="
M 54.00 55.00 
C 54.09 56.50 53.97 58.67 56.00 59.00
C 56.00 59.00 56.51 58.92 57.00 59.00
C 58.00 57.55 57.68 56.08 59.00 55.00
C 59.24 54.23 59.88 52.47 60.00 52.00
C 59.99 49.93 60.62 48.48 61.00 47.00
C 61.32 45.75 62.90 42.30 62.00 41.00
C 61.62 40.85 60.10 40.03 60.00 40.00
C 59.53 39.87 58.43 40.17 58.00 40.00
C 58.54 44.85 53.68 49.99 54.00 55.00 Z"/>
</g>
<g fill="None" fill-opacity="0.0" stroke="#F3F5FB" stroke-opacity="0.51" stroke-width="0.3"><path d="
M 61.00 47.00 
C 62.00 47.00 63.00 47.00 64.00 47.00
C 64.00 44.01 64.68 42.05 62.00 41.00
C 62.90 42.30 61.32 45.75 61.00 47.00 Z"/>
</g>
<g fill="None" fill-opacity="0.0" stroke="#F2F7FD" stroke-opacity="0.65" stroke-width="0.3"><path d="
M 23.00 56.00 
C 23.70 56.84 25.24 58.24 26.00 59.00
C 26.99 59.97 28.74 61.47 30.00 62.00
C 30.00 62.00 30.24 61.18 30.00 61.00
C 28.71 60.05 28.01 59.09 27.00 58.00
C 24.93 55.77 21.16 52.02 20.00 50.00
C 20.72 51.96 21.84 54.26 23.00 56.00 Z"/>
</g>
<g fill="None" fill-opacity="0.0" stroke="#F9FBFD" stroke-opacity="0.26" stroke-width="0.3"><path d="
M 18.00 84.00 
C 17.79 83.61 18.00 83.00 18.00 83.00
C 17.24 81.39 15.29 81.70 14.00 81.00
C 12.19 80.02 11.19 78.50 10.00 77.00
C 5.65 71.49 -0.84 54.86 10.00 51.00
C -4.98 54.65 5.89 85.50 18.00 84.00 Z"/>
</g>
<g fill="None" fill-opacity="0.0" stroke="#E0E4F4" stroke-opacity="0.99" stroke-width="0.3"><path d="
M 59.00 55.00 
C 59.30 54.75 60.00 55.00 60.00 55.00
C 60.26 54.76 60.00 52.39 60.00 52.00
C 59.88 52.47 59.24 54.23 59.00 55.00 Z"/>
</g>
<g fill="None" fill-opacity="0.0" stroke="#5D75C9" stroke-opacity="1.00" stroke-width="0.3"><path d="
M 27.00 58.00 
C 28.01 59.09 28.71 60.05 30.00 61.00
C 35.90 64.57 41.34 58.15 43.00 53.00
C 38.36 55.49 33.23 60.05 27.00 58.00 Z"/>
</g>
<g fill="None" fill-opacity="0.0" stroke="#ECC975" stroke-opacity="1.00" stroke-width="0.3"><path d="
M 50.00 62.00 
C 50.93 63.58 51.27 64.09 52.00 66.00
C 52.19 66.24 53.54 66.13 54.00 66.00
C 53.78 66.28 56.10 61.71 56.00 62.00
C 56.00 61.61 55.74 59.24 56.00 59.00
C 53.97 58.67 54.09 56.50 54.00 55.00
C 50.31 52.63 53.06 62.05 48.00 60.00
C 46.85 61.78 49.86 61.76 50.00 62.00 Z"/>
</g>
<g fill="None" fill-opacity="0.0" stroke="#6F86D0" stroke-opacity="0.98" stroke-width="0.3"><path d="
M 19.00 58.00 
C 18.74 57.58 18.71 55.28 18.00 55.00
C 17.50 54.96 16.02 55.09 16.00 55.00
C 16.03 55.06 17.59 62.71 19.00 58.00 Z"/>
</g>
<g fill="None" fill-opacity="0.0" stroke="#FCFCFE" stroke-opacity="0.24" stroke-width="0.3"><path d="
M 19.00 58.00 
C 19.00 58.00 19.95 57.86 20.00 58.00
C 19.84 56.11 21.21 55.26 18.00 55.00
C 18.71 55.28 18.74 57.58 19.00 58.00 Z"/>
</g>
<g fill="None" fill-opacity="0.0" stroke="#ECEFF8" stroke-opacity="0.64" stroke-width="0.3"><path d="
M 57.00 59.00 
C 59.63 59.43 60.86 57.47 60.00 55.00
C 60.00 55.00 59.30 54.75 59.00 55.00
C 57.68 56.08 58.00 57.55 57.00 59.00 Z"/>
</g>
<g fill="None" fill-opacity="0.0" stroke="#FFFFFF" stroke-opacity="0.12" stroke-width="0.3"><path d="
M 26.00 59.00 
C 25.24 58.24 23.70 56.84 23.00 56.00
C 23.88 57.32 24.91 57.90 26.00 59.00 Z"/>
</g>
<g fill="None" fill-opacity="0.0" stroke="#FCFEFF" stroke-opacity="0.35" stroke-width="0.3"><path d="
M 29.00 63.00 
C 29.21 63.39 29.00 64.00 29.00 64.00
C 29.78 64.84 29.99 61.89 30.00 62.00
C 28.74 61.47 26.99 59.97 26.00 59.00
C 26.94 59.95 28.34 61.74 29.00 63.00 Z"/>
</g>
<g fill="None" fill-opacity="0.0" stroke="#FFFBF3" stroke-opacity="0.38" stroke-width="0.3"><path d="
M 61.00 74.00 
C 60.94 73.71 61.99 72.98 62.00 73.00
C 60.99 71.74 60.04 71.07 59.00 70.00
C 63.55 69.09 63.65 64.45 65.00 61.00
C 66.65 62.01 65.93 65.20 68.00 66.00
C 68.00 64.00 68.00 62.00 68.00 60.00
C 62.12 60.31 60.26 68.52 58.00 73.00
C 59.25 72.62 59.98 73.70 61.00 74.00 Z"/>
</g>
<g fill="None" fill-opacity="0.0" stroke="#F8FBFE" stroke-opacity="0.35" stroke-width="0.3"><path d="
M 24.00 63.00 
C 23.47 59.96 22.54 62.36 21.00 61.00
C 21.84 62.25 22.26 63.05 24.00 63.00 Z"/>
</g>
<g fill="None" fill-opacity="0.0" stroke="#FFD46D" stroke-opacity="0.96" stroke-width="0.3"><path d="
M 62.00 73.00 
C 62.67 73.83 63.70 74.77 64.00 76.00
C 64.12 76.47 64.00 77.00 64.00 77.00
C 64.41 77.63 65.20 78.65 66.00 79.00
C 66.10 75.41 67.82 70.47 72.00 70.00
C 72.00 70.00 71.95 69.50 72.00 69.00
C 71.00 68.18 69.91 67.78 69.00 67.00
C 68.72 66.77 68.24 66.27 68.00 66.00
C 65.93 65.20 66.65 62.01 65.00 61.00
C 63.65 64.45 63.55 69.09 59.00 70.00
C 60.04 71.07 60.99 71.74 62.00 73.00 Z"/>
</g>
<g fill="None" fill-opacity="0.0" stroke="#5970C6" stroke-opacity="1.00" stroke-width="0.3"><path d="
M 12.00 78.00 
C 12.76 78.65 13.27 80.45 14.00 81.00
C 15.29 81.70 17.24 81.39 18.00 83.00
C 22.28 83.32 26.41 84.36 31.00 84.00
C 36.48 83.57 40.72 81.38 45.00 78.00
C 47.05 76.38 50.55 74.03 52.00 72.00
C 52.11 71.84 52.94 70.12 53.00 70.00
C 54.31 67.25 52.78 68.02 52.00 66.00
C 51.27 64.09 50.93 63.58 50.00 62.00
C 46.89 77.28 24.83 84.30 12.00 78.00 Z"/>
</g>
<g fill="None" fill-opacity="0.0" stroke="#697DCA" stroke-opacity="1.00" stroke-width="0.3"><path d="
M 54.00 66.00 
C 54.20 65.95 55.98 64.09 56.00 64.00
C 55.94 63.51 56.00 62.50 56.00 62.00
C 56.10 61.71 53.78 66.28 54.00 66.00 Z"/>
</g>
<g fill="None" fill-opacity="0.0" stroke="#FEFEFF" stroke-opacity="0.18" stroke-width="0.3"><path d="
M 29.00 64.00 
C 29.00 64.00 29.21 63.39 29.00 63.00
C 28.29 62.57 25.85 63.00 25.00 63.00
C 25.86 63.88 27.55 64.66 29.00 64.00 Z"/>
</g>
<g fill="None" fill-opacity="0.0" stroke="#E6E6EC" stroke-opacity="0.76" stroke-width="0.3"><path d="
M 54.00 66.00 
C 53.54 66.13 52.19 66.24 52.00 66.00
C 52.78 68.02 54.31 67.25 53.00 70.00
C 54.00 70.00 55.00 70.00 56.00 70.00
C 55.82 68.02 56.25 65.97 56.00 64.00
C 55.98 64.09 54.20 65.95 54.00 66.00 Z"/>
</g>
<g fill="None" fill-opacity="0.0" stroke="#FFFDF9" stroke-opacity="0.23" stroke-width="0.3"><path d="
M 72.00 69.00 
C 72.24 66.53 70.54 67.37 69.00 67.00
C 69.91 67.78 71.00 68.18 72.00 69.00 Z"/>
</g>
<g fill="None" fill-opacity="0.0" stroke="#FFFAEF" stroke-opacity="0.82" stroke-width="0.3"><path d="
M 64.00 77.00 
C 64.00 77.50 64.00 78.00 64.00 78.00
C 64.00 78.00 63.91 78.52 64.00 79.00
C 64.94 80.10 67.07 80.07 68.00 79.00
C 68.00 77.00 68.00 75.00 68.00 73.00
C 70.86 73.29 72.08 72.94 72.00 70.00
C 67.82 70.47 66.10 75.41 66.00 79.00
C 65.20 78.65 64.41 77.63 64.00 77.00 Z"/>
</g>
<g fill="None" fill-opacity="0.0" stroke="#FCFBFA" stroke-opacity="0.53" stroke-width="0.3"><path d="
M 45.00 78.00 
C 44.77 78.16 45.00 79.00 45.00 79.00
C 46.74 78.98 48.60 79.21 50.00 78.00
C 50.34 78.81 49.58 80.23 50.00 81.00
C 50.27 81.49 51.59 81.75 52.00 82.00
C 50.93 83.13 53.75 70.88 56.00 76.00
C 55.11 72.95 52.54 75.04 52.00 72.00
C 50.55 74.03 47.05 76.38 45.00 78.00 Z"/>
</g>
<g fill="None" fill-opacity="0.0" stroke="#FFF8E9" stroke-opacity="0.55" stroke-width="0.3"><path d="
M 61.00 74.00 
C 61.35 74.10 61.82 74.67 62.00 75.00
C 62.25 75.23 63.92 75.84 64.00 76.00
C 63.70 74.77 62.67 73.83 62.00 73.00
C 61.99 72.98 60.94 73.71 61.00 74.00 Z"/>
</g>
<g fill="None" fill-opacity="0.0" stroke="#FFDA80" stroke-opacity="0.93" stroke-width="0.3"><path d="
M 52.00 82.00 
C 53.04 82.64 53.87 83.59 55.00 84.00
C 54.07 82.63 55.86 81.66 56.00 81.00
C 56.00 79.54 56.40 77.39 56.00 76.00
C 53.75 70.88 50.93 83.13 52.00 82.00 Z"/>
</g>
<g fill="None" fill-opacity="0.0" stroke="#FFFFFE" stroke-opacity="0.15" stroke-width="0.3"><path d="
M 64.00 78.00 
C 64.00 78.00 64.00 77.50 64.00 77.00
C 64.00 77.00 64.12 76.47 64.00 76.00
C 63.92 75.84 62.25 75.23 62.00 75.00
C 62.62 76.11 63.32 77.09 64.00 78.00 Z"/>
</g>
<g fill="None" fill-opacity="0.0" stroke="#E6E9F6" stroke-opacity="0.68" stroke-width="0.3"><path d="
M 14.00 81.00 
C 13.27 80.45 12.76 78.65 12.00 78.00
C 11.34 77.68 10.59 77.49 10.00 77.00
C 11.19 78.50 12.19 80.02 14.00 81.00 Z"/>
</g>
<g fill="None" fill-opacity="0.0" stroke="#ECEEF9" stroke-opacity="0.86" stroke-width="0.3"><path d="
M 31.00 84.00 
C 30.87 84.04 31.00 85.00 31.00 85.00
C 33.01 84.79 34.15 84.50 36.00 84.00
C 39.05 83.17 44.35 82.66 45.00 79.00
C 45.00 79.00 44.77 78.16 45.00 78.00
C 40.72 81.38 36.48 83.57 31.00 84.00 Z"/>
</g>
<g fill="None" fill-opacity="0.0" stroke="#FFFFFF" stroke-opacity="0.16" stroke-width="0.3"><path d="
M 68.00 79.00 
C 67.07 80.07 64.94 80.10 64.00 79.00
C 64.73 80.75 65.65 82.76 68.00 82.00
C 68.27 81.10 67.67 79.87 68.00 79.00 Z"/>
</g>
<g fill="None" fill-opacity="0.0" stroke="#FFFDF9" stroke-opacity="0.20" stroke-width="0.3"><path d="
M 56.00 84.00 
C 55.73 84.25 55.00 84.00 55.00 84.00
C 53.87 83.59 53.04 82.64 52.00 82.00
C 51.59 81.75 50.27 81.49 50.00 81.00
C 52.04 82.88 52.89 86.87 56.00 87.00
C 55.97 86.00 56.03 85.00 56.00 84.00 Z"/>
</g>
<g fill="None" fill-opacity="0.0" stroke="#FFFEFB" stroke-opacity="0.91" stroke-width="0.3"><path d="
M 55.00 84.00 
C 55.00 84.00 55.73 84.25 56.00 84.00
C 56.26 83.76 56.00 81.39 56.00 81.00
C 55.86 81.66 54.07 82.63 55.00 84.00 Z"/>
</g>
<g fill="None" fill-opacity="0.0" stroke="#E5E9F6" stroke-opacity="0.60" stroke-width="0.3"><path d="
M 18.00 84.00 
C 19.20 86.22 22.71 86.15 25.00 86.00
C 25.50 85.97 26.00 86.00 26.00 86.00
C 27.42 84.63 29.00 85.21 31.00 85.00
C 31.00 85.00 30.87 84.04 31.00 84.00
C 26.41 84.36 22.28 83.32 18.00 83.00
C 18.00 83.00 17.79 83.61 18.00 84.00 Z"/>
</g>
<g fill="None" fill-opacity="0.0" stroke="#FFFFFF" stroke-opacity="0.30" stroke-width="0.3"><path d="
M 31.00 85.00 
C 29.00 85.21 27.42 84.63 26.00 86.00
C 26.50 86.00 27.50 86.00 28.00 86.00
C 32.02 86.00 33.82 84.89 36.00 84.00
C 34.15 84.50 33.01 84.79 31.00 85.00 Z"/>
</g>
<g fill="None" fill-opacity="0.0" stroke="#FFFFFF" stroke-opacity="0.03" stroke-width="0.3"><path d="
M 28.00 86.00 
C 27.50 86.00 26.50 86.00 26.00 86.00
C 26.00 86.00 25.50 85.97 25.00 86.00
C 26.28 86.21 26.72 86.15 28.00 86.00 Z"/>
</g>
<g fill="#000000" fill-opacity="0.00" stroke="None">
<path d="
M 0.00 93.00 
L 77.00 93.00
L 77.00 0.00
L 28.00 0.00
C 27.30 1.48 28.50 2.16 29.00 3.00
C 30.29 4.30 32.71 2.27 32.00 6.00
C 31.91 6.48 32.00 7.00 32.00 7.00
C 32.09 8.41 32.70 10.34 34.00 11.00
C 34.65 9.26 36.50 8.73 38.00 8.00
C 46.35 3.95 55.24 4.79 64.00 7.00
C 61.98 11.82 67.92 9.67 68.00 13.00
C 69.07 14.44 68.49 13.87 70.00 15.00
C 72.10 16.56 71.92 16.69 72.00 20.00
C 72.02 20.83 72.42 23.31 72.00 24.00
C 72.99 27.17 71.90 28.76 69.00 29.00
C 68.65 29.03 67.99 29.67 68.00 30.00
C 68.04 31.33 67.97 32.67 68.00 34.00
C 65.39 33.33 63.55 35.34 61.00 35.00
C 60.18 37.28 58.02 36.64 56.00 37.00
C 56.26 37.21 56.76 37.74 57.00 38.00
C 59.86 38.69 58.35 38.28 60.00 40.00
C 60.10 40.03 61.62 40.85 62.00 41.00
C 64.68 42.05 64.00 44.01 64.00 47.00
C 63.00 47.00 62.00 47.00 61.00 47.00
C 60.62 48.48 59.99 49.93 60.00 52.00
C 60.00 52.39 60.26 54.76 60.00 55.00
C 60.86 57.47 59.63 59.43 57.00 59.00
C 56.51 58.92 56.00 59.00 56.00 59.00
C 55.74 59.24 56.00 61.61 56.00 62.00
C 56.00 62.50 55.94 63.51 56.00 64.00
C 56.25 65.97 55.82 68.02 56.00 70.00
C 55.00 70.00 54.00 70.00 53.00 70.00
C 52.94 70.12 52.11 71.84 52.00 72.00
C 52.54 75.04 55.11 72.95 56.00 76.00
C 56.40 77.39 56.00 79.54 56.00 81.00
C 56.00 81.39 56.26 83.76 56.00 84.00
C 56.03 85.00 55.97 86.00 56.00 87.00
C 52.89 86.87 52.04 82.88 50.00 81.00
C 49.58 80.23 50.34 78.81 50.00 78.00
C 48.60 79.21 46.74 78.98 45.00 79.00
C 44.35 82.66 39.05 83.17 36.00 84.00
C 33.82 84.89 32.02 86.00 28.00 86.00
C 26.72 86.15 26.28 86.21 25.00 86.00
C 22.71 86.15 19.20 86.22 18.00 84.00
C 5.89 85.50 -4.98 54.65 10.00 51.00
C 11.89 50.54 14.08 51.35 16.00 51.00
C 16.00 52.33 16.00 53.67 16.00 55.00
C 16.02 55.09 17.50 54.96 18.00 55.00
C 21.21 55.26 19.84 56.11 20.00 58.00
C 20.48 59.51 20.17 59.77 21.00 61.00
C 22.54 62.36 23.47 59.96 24.00 63.00
C 24.50 62.99 25.00 63.00 25.00 63.00
C 25.85 63.00 28.29 62.57 29.00 63.00
C 28.34 61.74 26.94 59.95 26.00 59.00
C 24.91 57.90 23.88 57.32 23.00 56.00
C 21.84 54.26 20.72 51.96 20.00 50.00
C 19.55 48.78 19.19 47.35 19.00 46.00
C 18.53 42.69 18.66 38.33 19.00 35.00
C 19.26 32.43 19.98 30.37 21.00 28.00
C 21.06 27.96 16.93 27.71 16.00 28.00
C 14.37 25.51 15.36 21.31 12.00 20.00
C 11.56 19.72 10.30 19.31 10.00 19.00
C 5.35 16.01 11.99 13.20 15.00 13.00
C 15.43 10.69 13.66 7.19 17.00 7.00
C 20.86 6.43 20.03 9.97 22.00 12.00
C 22.26 8.90 25.04 8.07 26.00 6.00
C 26.62 4.16 26.64 1.97 27.00 0.00
L 0.00 0.00
L 0.00 93.00
M 68.00 66.00 
C 68.24 66.27 68.72 66.77 69.00 67.00
C 70.54 67.37 72.24 66.53 72.00 69.00
C 71.95 69.50 72.00 70.00 72.00 70.00
C 72.08 72.94 70.86 73.29 68.00 73.00
C 68.00 75.00 68.00 77.00 68.00 79.00
C 67.67 79.87 68.27 81.10 68.00 82.00
C 65.65 82.76 64.73 80.75 64.00 79.00
C 63.91 78.52 64.00 78.00 64.00 78.00
C 63.32 77.09 62.62 76.11 62.00 75.00
C 61.82 74.67 61.35 74.10 61.00 74.00
C 59.98 73.70 59.25 72.62 58.00 73.00
C 60.26 68.52 62.12 60.31 68.00 60.00
C 68.00 62.00 68.00 64.00 68.00 66.00 Z"/>
</g>
<g fill="#FFDD8C" fill-opacity="0.87" stroke="None">
<path d="
M 26.00 6.00 
C 25.78 6.66 25.30 7.37 25.00 8.00
C 25.17 8.97 27.78 13.04 29.00 13.00
C 28.47 10.54 29.58 7.87 32.00 7.00
C 32.00 7.00 31.91 6.48 32.00 6.00
C 30.69 5.03 29.83 4.39 29.00 3.00
C 28.50 2.16 27.30 1.48 28.00 0.00
L 27.00 0.00
C 26.64 1.97 26.62 4.16 26.00 6.00 Z"/>
</g>
<g fill="#FFFEFD" fill-opacity="0.35" stroke="None">
<path d="
M 32.00 6.00 
C 32.71 2.27 30.29 4.30 29.00 3.00
C 29.83 4.39 30.69 5.03 32.00 6.00 Z"/>
</g>
<g fill="#C6E2F9" fill-opacity="0.98" stroke="None">
<path d="
M 38.00 8.00 
C 36.70 8.85 35.31 10.17 34.00 11.00
C 29.84 13.63 25.12 18.28 23.00 23.00
C 22.32 24.52 21.58 26.66 21.00 28.00
C 19.98 30.37 19.26 32.43 19.00 35.00
C 18.99 37.40 18.92 43.72 19.00 46.00
C 19.19 47.35 19.55 48.78 20.00 50.00
C 21.16 52.02 24.93 55.77 27.00 58.00
C 33.23 60.05 38.36 55.49 43.00 53.00
C 41.34 58.15 35.90 64.57 30.00 61.00
C 30.24 61.18 30.00 62.00 30.00 62.00
C 29.99 61.89 29.78 64.84 29.00 64.00
C 27.55 64.66 25.86 63.88 25.00 63.00
C 25.00 63.00 24.50 62.99 24.00 63.00
C 22.26 63.05 21.84 62.25 21.00 61.00
C 20.17 59.77 20.48 59.51 20.00 58.00
C 19.95 57.86 19.00 58.00 19.00 58.00
C 17.59 62.71 16.03 55.06 16.00 55.00
C 16.00 53.67 16.00 52.33 16.00 51.00
C 14.08 51.35 11.89 50.54 10.00 51.00
C -0.84 54.86 5.65 71.49 10.00 77.00
C 10.59 77.49 11.34 77.68 12.00 78.00
C 24.83 84.30 46.89 77.28 50.00 62.00
C 49.86 61.76 46.85 61.78 48.00 60.00
C 53.06 62.05 50.31 52.63 54.00 55.00
C 53.68 49.99 58.54 44.85 58.00 40.00
C 57.52 39.81 57.28 38.30 57.00 38.00
C 56.76 37.74 56.26 37.21 56.00 37.00
C 53.29 34.83 51.59 38.04 48.77 39.77 C 45.95 41.50 42.67 40.41 40.00 39.00
C 38.23 38.06 37.07 38.10 36.00 36.00
C 33.32 32.08 35.94 25.91 38.75 22.75 C 41.57 19.60 50.53 17.83 51.00 24.00
C 51.04 24.50 51.00 25.50 51.00 26.00
C 51.00 26.50 50.93 27.51 51.00 28.00
C 51.30 30.14 52.58 29.74 54.00 31.00
C 57.73 31.60 63.03 26.32 64.92 23.92 C 66.81 21.52 67.15 11.12 68.00 13.00
C 67.92 9.67 61.98 11.82 64.00 7.00
C 55.24 4.79 46.35 3.95 38.00 8.00
M 29.00 19.00 
C 30.10 21.25 30.31 24.96 34.00 24.00
C 31.82 25.58 29.02 27.62 30.00 31.00
C 27.07 31.15 27.92 25.26 24.00 26.00
C 25.28 23.78 28.14 22.07 29.00 19.00 Z"/>
</g>
<g fill="#FFFDFA" fill-opacity="0.32" stroke="None">
<path d="
M 22.00 12.00 
C 23.18 13.22 23.71 10.70 25.00 8.00
C 25.30 7.37 25.78 6.66 26.00 6.00
C 25.04 8.07 22.26 8.90 22.00 12.00 Z"/>
</g>
<g fill="#FFF7E3" fill-opacity="0.40" stroke="None">
<path d="
M 15.00 13.00 
C 15.93 11.57 16.23 9.49 17.00 8.00
C 16.79 7.61 17.00 7.00 17.00 7.00
C 13.66 7.19 15.43 10.69 15.00 13.00 Z"/>
</g>
<g fill="#FEFDFA" fill-opacity="0.83" stroke="None">
<path d="
M 17.00 8.00 
C 18.98 11.79 21.08 15.02 25.00 17.00
C 19.19 15.70 18.25 22.19 17.00 26.00
C 17.10 26.03 21.04 26.33 19.92 23.92 C 18.79 21.50 23.00 23.00 23.00 23.00
C 25.12 18.28 29.84 13.63 34.00 11.00
C 32.70 10.34 32.09 8.41 32.00 7.00
C 29.58 7.87 28.47 10.54 29.00 13.00
C 27.78 13.04 25.17 8.97 25.00 8.00
C 23.71 10.70 23.18 13.22 22.00 12.00
C 20.03 9.97 20.86 6.43 17.00 7.00
C 17.00 7.00 16.79 7.61 17.00 8.00 Z"/>
</g>
<g fill="#FFD56F" fill-opacity="0.98" stroke="None">
<path d="
M 15.00 13.00 
C 13.65 15.07 11.28 15.16 10.00 17.00
C 10.93 16.74 13.33 19.21 14.00 20.00
C 15.85 21.27 15.29 25.47 17.00 26.00
C 18.25 22.19 19.19 15.70 25.00 17.00
C 21.08 15.02 18.98 11.79 17.00 8.00
C 16.23 9.49 15.93 11.57 15.00 13.00 Z"/>
</g>
<g fill="#FCFDFF" fill-opacity="0.15" stroke="None">
<path d="
M 34.00 11.00 
C 35.31 10.17 36.70 8.85 38.00 8.00
C 36.50 8.73 34.65 9.26 34.00 11.00 Z"/>
</g>
<g fill="#586FC6" fill-opacity="1.00" stroke="None">
<path d="
M 54.00 31.00 
C 56.61 33.30 56.14 34.18 61.00 34.00
C 63.33 32.66 65.96 31.80 68.00 30.00
C 67.99 29.67 68.65 29.03 69.00 29.00
C 69.78 27.79 69.87 25.48 70.00 24.00
C 70.18 22.04 70.00 19.97 70.00 18.00
C 70.00 17.28 70.29 15.65 70.00 15.00
C 68.49 13.87 69.07 14.44 68.00 13.00
C 67.15 11.12 66.81 21.52 64.92 23.92 C 63.03 26.32 57.73 31.60 54.00 31.00 Z"/>
</g>
<g fill="#FFFDF9" fill-opacity="0.16" stroke="None">
<path d="
M 10.00 19.00 
C 8.92 17.88 9.45 17.79 10.00 17.00
C 11.28 15.16 13.65 15.07 15.00 13.00
C 11.99 13.20 5.35 16.01 10.00 19.00 Z"/>
</g>
<g fill="#F8F9FC" fill-opacity="0.40" stroke="None">
<path d="
M 70.00 18.00 
C 70.14 18.51 70.87 19.03 71.00 20.00
C 71.20 20.24 72.00 20.00 72.00 20.00
C 71.92 16.69 72.10 16.56 70.00 15.00
C 70.29 15.65 70.00 17.28 70.00 18.00 Z"/>
</g>
<g fill="#FFFDF9" fill-opacity="0.66" stroke="None">
<path d="
M 10.00 19.00 
C 10.30 19.31 11.56 19.72 12.00 20.00
C 12.27 20.06 12.90 19.24 14.00 20.00
C 13.33 19.21 10.93 16.74 10.00 17.00
C 9.45 17.79 8.92 17.88 10.00 19.00 Z"/>
</g>
<g fill="#8F9ED9" fill-opacity="1.00" stroke="None">
<path d="
M 70.00 24.00 
C 70.03 23.89 71.00 24.00 71.00 24.00
C 70.50 23.18 71.14 20.97 71.00 20.00
C 70.87 19.03 70.14 18.51 70.00 18.00
C 70.00 19.97 70.18 22.04 70.00 24.00 Z"/>
</g>
<g fill="#FEFDFC" fill-opacity="0.36" stroke="None">
<path d="
M 12.00 20.00 
C 15.36 21.31 14.37 25.51 16.00 28.00
C 16.93 27.71 21.06 27.96 21.00 28.00
C 21.58 26.66 22.32 24.52 23.00 23.00
C 23.00 23.00 18.79 21.50 19.92 23.92 C 21.04 26.33 17.10 26.03 17.00 26.00
C 15.29 25.47 15.85 21.27 14.00 20.00
C 12.90 19.24 12.27 20.06 12.00 20.00 Z"/>
</g>
<g fill="#F5D379" fill-opacity="1.00" stroke="None">
<path d="
M 29.00 19.00 
C 28.14 22.07 25.28 23.78 24.00 26.00
C 27.92 25.26 27.07 31.15 30.00 31.00
C 29.02 27.62 31.82 25.58 34.00 24.00
C 30.31 24.96 30.10 21.25 29.00 19.00 Z"/>
</g>
<g fill="#576EC6" fill-opacity="1.00" stroke="None">
<path d="
M 36.00 36.00 
C 36.53 36.77 38.25 37.50 39.00 38.00
C 37.45 32.60 44.02 20.69 51.00 24.00
C 50.53 17.83 41.57 19.60 38.75 22.75 C 35.94 25.91 33.32 32.08 36.00 36.00 Z"/>
</g>
<g fill="#FFFFFF" fill-opacity="0.88" stroke="None">
<path d="
M 71.00 24.00 
C 71.50 24.00 72.00 24.00 72.00 24.00
C 72.42 23.31 72.02 20.83 72.00 20.00
C 72.00 20.00 71.20 20.24 71.00 20.00
C 71.14 20.97 70.50 23.18 71.00 24.00 Z"/>
</g>
<g fill="#F8FAFD" fill-opacity="0.93" stroke="None">
<path d="
M 39.00 38.00 
C 39.31 38.21 39.79 38.70 40.00 39.00
C 42.67 40.41 45.95 41.50 48.77 39.77 C 51.59 38.04 53.29 34.83 56.00 37.00
C 58.02 36.64 60.18 37.28 61.00 35.00
C 61.16 34.56 61.00 34.00 61.00 34.00
C 56.14 34.18 56.61 33.30 54.00 31.00
C 52.58 29.74 51.30 30.14 51.00 28.00
C 49.28 30.53 44.93 30.65 43.00 33.00
C 41.99 28.45 46.74 24.86 51.00 26.00
C 51.00 25.50 51.04 24.50 51.00 24.00
C 44.02 20.69 37.45 32.60 39.00 38.00
M 48.00 38.00 
C 43.64 43.38 39.51 36.07 48.00 38.00 Z"/>
</g>
<g fill="#F5F7FC" fill-opacity="0.63" stroke="None">
<path d="
M 69.00 29.00 
C 71.90 28.76 72.99 27.17 72.00 24.00
C 72.00 24.00 71.50 24.00 71.00 24.00
C 71.00 24.00 70.03 23.89 70.00 24.00
C 69.87 25.48 69.78 27.79 69.00 29.00 Z"/>
</g>
<g fill="#FDFEFE" fill-opacity="0.61" stroke="None">
<path d="
M 51.00 28.00 
C 50.93 27.51 51.00 26.50 51.00 26.00
C 46.74 24.86 41.99 28.45 43.00 33.00
C 44.93 30.65 49.28 30.53 51.00 28.00 Z"/>
</g>
<g fill="#F5F7FC" fill-opacity="0.69" stroke="None">
<path d="
M 61.00 34.00 
C 61.00 34.00 61.16 34.56 61.00 35.00
C 63.55 35.34 65.39 33.33 68.00 34.00
C 67.97 32.67 68.04 31.33 68.00 30.00
C 65.96 31.80 63.33 32.66 61.00 34.00 Z"/>
</g>
<g fill="#E9F3FD" fill-opacity="0.63" stroke="None">
<path d="
M 19.00 46.00 
C 18.92 43.72 18.99 37.40 19.00 35.00
C 18.66 38.33 18.53 42.69 19.00 46.00 Z"/>
</g>
<g fill="#89A0DB" fill-opacity="1.00" stroke="None">
<path d="
M 40.00 39.00 
C 39.79 38.70 39.31 38.21 39.00 38.00
C 38.25 37.50 36.53 36.77 36.00 36.00
C 37.07 38.10 38.23 38.06 40.00 39.00 Z"/>
</g>
<g fill="#FFFFFF" fill-opacity="0.38" stroke="None">
<path d="
M 48.00 38.00 
C 39.51 36.07 43.64 43.38 48.00 38.00 Z"/>
</g>
<g fill="#EBF0F9" fill-opacity="0.44" stroke="None">
<path d="
M 58.00 40.00 
C 58.43 40.17 59.53 39.87 60.00 40.00
C 58.35 38.28 59.86 38.69 57.00 38.00
C 57.28 38.30 57.52 39.81 58.00 40.00 Z"/>
</g>
<g fill="#566CC5" fill-opacity="1.00" stroke="None">
<path d="
M 54.00 55.00 
C 54.09 56.50 53.97 58.67 56.00 59.00
C 56.00 59.00 56.51 58.92 57.00 59.00
C 58.00 57.55 57.68 56.08 59.00 55.00
C 59.24 54.23 59.88 52.47 60.00 52.00
C 59.99 49.93 60.62 48.48 61.00 47.00
C 61.32 45.75 62.90 42.30 62.00 41.00
C 61.62 40.85 60.10 40.03 60.00 40.00
C 59.53 39.87 58.43 40.17 58.00 40.00
C 58.54 44.85 53.68 49.99 54.00 55.00 Z"/>
</g>
<g fill="#F3F5FB" fill-opacity="0.51" stroke="None">
<path d="
M 61.00 47.00 
C 62.00 47.00 63.00 47.00 64.00 47.00
C 64.00 44.01 64.68 42.05 62.00 41.00
C 62.90 42.30 61.32 45.75 61.00 47.00 Z"/>
</g>
<g fill="#F2F7FD" fill-opacity="0.65" stroke="None">
<path d="
M 23.00 56.00 
C 23.70 56.84 25.24 58.24 26.00 59.00
C 26.99 59.97 28.74 61.47 30.00 62.00
C 30.00 62.00 30.24 61.18 30.00 61.00
C 28.71 60.05 28.01 59.09 27.00 58.00
C 24.93 55.77 21.16 52.02 20.00 50.00
C 20.72 51.96 21.84 54.26 23.00 56.00 Z"/>
</g>
<g fill="#F9FBFD" fill-opacity="0.26" stroke="None">
<path d="
M 18.00 84.00 
C 17.79 83.61 18.00 83.00 18.00 83.00
C 17.24 81.39 15.29 81.70 14.00 81.00
C 12.19 80.02 11.19 78.50 10.00 77.00
C 5.65 71.49 -0.84 54.86 10.00 51.00
C -4.98 54.65 5.89 85.50 18.00 84.00 Z"/>
</g>
<g fill="#E0E4F4" fill-opacity="0.99" stroke="None">
<path d="
M 59.00 55.00 
C 59.30 54.75 60.00 55.00 60.00 55.00
C 60.26 54.76 60.00 52.39 60.00 52.00
C 59.88 52.47 59.24 54.23 59.00 55.00 Z"/>
</g>
<g fill="#5D75C9" fill-opacity="1.00" stroke="None">
<path d="
M 27.00 58.00 
C 28.01 59.09 28.71 60.05 30.00 61.00
C 35.90 64.57 41.34 58.15 43.00 53.00
C 38.36 55.49 33.23 60.05 27.00 58.00 Z"/>
</g>
<g fill="#ECC975" fill-opacity="1.00" stroke="None">
<path d="
M 50.00 62.00 
C 50.93 63.58 51.27 64.09 52.00 66.00
C 52.19 66.24 53.54 66.13 54.00 66.00
C 53.78 66.28 56.10 61.71 56.00 62.00
C 56.00 61.61 55.74 59.24 56.00 59.00
C 53.97 58.67 54.09 56.50 54.00 55.00
C 50.31 52.63 53.06 62.05 48.00 60.00
C 46.85 61.78 49.86 61.76 50.00 62.00 Z"/>
</g>
<g fill="#6F86D0" fill-opacity="0.98" stroke="None">
<path d="
M 19.00 58.00 
C 18.74 57.58 18.71 55.28 18.00 55.00
C 17.50 54.96 16.02 55.09 16.00 55.00
C 16.03 55.06 17.59 62.71 19.00 58.00 Z"/>
</g>
<g fill="#FCFCFE" fill-opacity="0.24" stroke="None">
<path d="
M 19.00 58.00 
C 19.00 58.00 19.95 57.86 20.00 58.00
C 19.84 56.11 21.21 55.26 18.00 55.00
C 18.71 55.28 18.74 57.58 19.00 58.00 Z"/>
</g>
<g fill="#ECEFF8" fill-opacity="0.64" stroke="None">
<path d="
M 57.00 59.00 
C 59.63 59.43 60.86 57.47 60.00 55.00
C 60.00 55.00 59.30 54.75 59.00 55.00
C 57.68 56.08 58.00 57.55 57.00 59.00 Z"/>
</g>
<g fill="#FFFFFF" fill-opacity="0.12" stroke="None">
<path d="
M 26.00 59.00 
C 25.24 58.24 23.70 56.84 23.00 56.00
C 23.88 57.32 24.91 57.90 26.00 59.00 Z"/>
</g>
<g fill="#FCFEFF" fill-opacity="0.35" stroke="None">
<path d="
M 29.00 63.00 
C 29.21 63.39 29.00 64.00 29.00 64.00
C 29.78 64.84 29.99 61.89 30.00 62.00
C 28.74 61.47 26.99 59.97 26.00 59.00
C 26.94 59.95 28.34 61.74 29.00 63.00 Z"/>
</g>
<g fill="#FFFBF3" fill-opacity="0.38" stroke="None">
<path d="
M 61.00 74.00 
C 60.94 73.71 61.99 72.98 62.00 73.00
C 60.99 71.74 60.04 71.07 59.00 70.00
C 63.55 69.09 63.65 64.45 65.00 61.00
C 66.65 62.01 65.93 65.20 68.00 66.00
C 68.00 64.00 68.00 62.00 68.00 60.00
C 62.12 60.31 60.26 68.52 58.00 73.00
C 59.25 72.62 59.98 73.70 61.00 74.00 Z"/>
</g>
<g fill="#F8FBFE" fill-opacity="0.35" stroke="None">
<path d="
M 24.00 63.00 
C 23.47 59.96 22.54 62.36 21.00 61.00
C 21.84 62.25 22.26 63.05 24.00 63.00 Z"/>
</g>
<g fill="#FFD46D" fill-opacity="0.96" stroke="None">
<path d="
M 62.00 73.00 
C 62.67 73.83 63.70 74.77 64.00 76.00
C 64.12 76.47 64.00 77.00 64.00 77.00
C 64.41 77.63 65.20 78.65 66.00 79.00
C 66.10 75.41 67.82 70.47 72.00 70.00
C 72.00 70.00 71.95 69.50 72.00 69.00
C 71.00 68.18 69.91 67.78 69.00 67.00
C 68.72 66.77 68.24 66.27 68.00 66.00
C 65.93 65.20 66.65 62.01 65.00 61.00
C 63.65 64.45 63.55 69.09 59.00 70.00
C 60.04 71.07 60.99 71.74 62.00 73.00 Z"/>
</g>
<g fill="#5970C6" fill-opacity="1.00" stroke="None">
<path d="
M 12.00 78.00 
C 12.76 78.65 13.27 80.45 14.00 81.00
C 15.29 81.70 17.24 81.39 18.00 83.00
C 22.28 83.32 26.41 84.36 31.00 84.00
C 36.48 83.57 40.72 81.38 45.00 78.00
C 47.05 76.38 50.55 74.03 52.00 72.00
C 52.11 71.84 52.94 70.12 53.00 70.00
C 54.31 67.25 52.78 68.02 52.00 66.00
C 51.27 64.09 50.93 63.58 50.00 62.00
C 46.89 77.28 24.83 84.30 12.00 78.00 Z"/>
</g>
<g fill="#697DCA" fill-opacity="1.00" stroke="None">
<path d="
M 54.00 66.00 
C 54.20 65.95 55.98 64.09 56.00 64.00
C 55.94 63.51 56.00 62.50 56.00 62.00
C 56.10 61.71 53.78 66.28 54.00 66.00 Z"/>
</g>
<g fill="#FEFEFF" fill-opacity="0.18" stroke="None">
<path d="
M 29.00 64.00 
C 29.00 64.00 29.21 63.39 29.00 63.00
C 28.29 62.57 25.85 63.00 25.00 63.00
C 25.86 63.88 27.55 64.66 29.00 64.00 Z"/>
</g>
<g fill="#E6E6EC" fill-opacity="0.76" stroke="None">
<path d="
M 54.00 66.00 
C 53.54 66.13 52.19 66.24 52.00 66.00
C 52.78 68.02 54.31 67.25 53.00 70.00
C 54.00 70.00 55.00 70.00 56.00 70.00
C 55.82 68.02 56.25 65.97 56.00 64.00
C 55.98 64.09 54.20 65.95 54.00 66.00 Z"/>
</g>
<g fill="#FFFDF9" fill-opacity="0.23" stroke="None">
<path d="
M 72.00 69.00 
C 72.24 66.53 70.54 67.37 69.00 67.00
C 69.91 67.78 71.00 68.18 72.00 69.00 Z"/>
</g>
<g fill="#FFFAEF" fill-opacity="0.82" stroke="None">
<path d="
M 64.00 77.00 
C 64.00 77.50 64.00 78.00 64.00 78.00
C 64.00 78.00 63.91 78.52 64.00 79.00
C 64.94 80.10 67.07 80.07 68.00 79.00
C 68.00 77.00 68.00 75.00 68.00 73.00
C 70.86 73.29 72.08 72.94 72.00 70.00
C 67.82 70.47 66.10 75.41 66.00 79.00
C 65.20 78.65 64.41 77.63 64.00 77.00 Z"/>
</g>
<g fill="#FCFBFA" fill-opacity="0.53" stroke="None">
<path d="
M 45.00 78.00 
C 44.77 78.16 45.00 79.00 45.00 79.00
C 46.74 78.98 48.60 79.21 50.00 78.00
C 50.34 78.81 49.58 80.23 50.00 81.00
C 50.27 81.49 51.59 81.75 52.00 82.00
C 50.93 83.13 53.75 70.88 56.00 76.00
C 55.11 72.95 52.54 75.04 52.00 72.00
C 50.55 74.03 47.05 76.38 45.00 78.00 Z"/>
</g>
<g fill="#FFF8E9" fill-opacity="0.55" stroke="None">
<path d="
M 61.00 74.00 
C 61.35 74.10 61.82 74.67 62.00 75.00
C 62.25 75.23 63.92 75.84 64.00 76.00
C 63.70 74.77 62.67 73.83 62.00 73.00
C 61.99 72.98 60.94 73.71 61.00 74.00 Z"/>
</g>
<g fill="#FFDA80" fill-opacity="0.93" stroke="None">
<path d="
M 52.00 82.00 
C 53.04 82.64 53.87 83.59 55.00 84.00
C 54.07 82.63 55.86 81.66 56.00 81.00
C 56.00 79.54 56.40 77.39 56.00 76.00
C 53.75 70.88 50.93 83.13 52.00 82.00 Z"/>
</g>
<g fill="#FFFFFE" fill-opacity="0.15" stroke="None">
<path d="
M 64.00 78.00 
C 64.00 78.00 64.00 77.50 64.00 77.00
C 64.00 77.00 64.12 76.47 64.00 76.00
C 63.92 75.84 62.25 75.23 62.00 75.00
C 62.62 76.11 63.32 77.09 64.00 78.00 Z"/>
</g>
<g fill="#E6E9F6" fill-opacity="0.68" stroke="None">
<path d="
M 14.00 81.00 
C 13.27 80.45 12.76 78.65 12.00 78.00
C 11.34 77.68 10.59 77.49 10.00 77.00
C 11.19 78.50 12.19 80.02 14.00 81.00 Z"/>
</g>
<g fill="#ECEEF9" fill-opacity="0.86" stroke="None">
<path d="
M 31.00 84.00 
C 30.87 84.04 31.00 85.00 31.00 85.00
C 33.01 84.79 34.15 84.50 36.00 84.00
C 39.05 83.17 44.35 82.66 45.00 79.00
C 45.00 79.00 44.77 78.16 45.00 78.00
C 40.72 81.38 36.48 83.57 31.00 84.00 Z"/>
</g>
<g fill="#FFFFFF" fill-opacity="0.16" stroke="None">
<path d="
M 68.00 79.00 
C 67.07 80.07 64.94 80.10 64.00 79.00
C 64.73 80.75 65.65 82.76 68.00 82.00
C 68.27 81.10 67.67 79.87 68.00 79.00 Z"/>
</g>
<g fill="#FFFDF9" fill-opacity="0.20" stroke="None">
<path d="
M 56.00 84.00 
C 55.73 84.25 55.00 84.00 55.00 84.00
C 53.87 83.59 53.04 82.64 52.00 82.00
C 51.59 81.75 50.27 81.49 50.00 81.00
C 52.04 82.88 52.89 86.87 56.00 87.00
C 55.97 86.00 56.03 85.00 56.00 84.00 Z"/>
</g>
<g fill="#FFFEFB" fill-opacity="0.91" stroke="None">
<path d="
M 55.00 84.00 
C 55.00 84.00 55.73 84.25 56.00 84.00
C 56.26 83.76 56.00 81.39 56.00 81.00
C 55.86 81.66 54.07 82.63 55.00 84.00 Z"/>
</g>
<g fill="#E5E9F6" fill-opacity="0.60" stroke="None">
<path d="
M 18.00 84.00 
C 19.20 86.22 22.71 86.15 25.00 86.00
C 25.50 85.97 26.00 86.00 26.00 86.00
C 27.42 84.63 29.00 85.21 31.00 85.00
C 31.00 85.00 30.87 84.04 31.00 84.00
C 26.41 84.36 22.28 83.32 18.00 83.00
C 18.00 83.00 17.79 83.61 18.00 84.00 Z"/>
</g>
<g fill="#FFFFFF" fill-opacity="0.30" stroke="None">
<path d="
M 31.00 85.00 
C 29.00 85.21 27.42 84.63 26.00 86.00
C 26.50 86.00 27.50 86.00 28.00 86.00
C 32.02 86.00 33.82 84.89 36.00 84.00
C 34.15 84.50 33.01 84.79 31.00 85.00 Z"/>
</g>
<g fill="#FFFFFF" fill-opacity="0.03" stroke="None">
<path d="
M 28.00 86.00 
C 27.50 86.00 26.50 86.00 26.00 86.00
C 26.00 86.00 25.50 85.97 25.00 86.00
C 26.28 86.21 26.72 86.15 28.00 86.00 Z"/>
</g>
</svg>