<svg xmlns="http://www.w3.org/2000/svg" xmlns:v="https://svgstorm.com"
viewBox = "0 0 274 105"
width="274"
height="105">
<g fill="None" fill-opacity="0.0" stroke="#000000" stroke-opacity="0.00" stroke-width="0.3"><path d="
M 0.00 35.00 
C 0.99 34.91 2.01 35.11 3.00 35.00
C 4.18 34.66 6.47 32.02 7.00 31.00
C 7.72 29.28 7.57 26.87 8.00 25.00
C 11.76 27.57 12.64 34.34 18.00 36.00
C 14.66 36.35 10.97 38.03 11.00 42.00
C 10.23 43.59 10.78 47.42 8.00 45.00
C 5.87 43.14 5.95 34.80 0.00 36.00
L 0.00 105.00
L 249.00 105.00
C 248.52 103.07 246.76 101.49 246.00 100.00
C 245.55 99.12 243.11 98.77 244.00 97.00
C 245.82 97.55 246.47 95.25 248.00 95.00
C 248.50 94.57 247.60 92.55 248.00 92.00
C 249.69 91.68 251.29 93.32 251.00 95.00
C 252.03 95.88 253.31 97.21 255.00 97.00
C 254.03 99.99 249.49 100.66 250.00 105.00
L 274.00 105.00
L 274.00 0.00
L 0.00 0.00
L 0.00 35.00
M 77.00 8.00 
C 78.84 9.84 80.46 10.25 81.00 13.00
C 81.09 13.48 81.00 14.00 81.00 14.00
C 82.53 16.07 82.50 19.97 81.00 22.00
C 81.00 22.50 81.00 23.00 81.00 23.00
C 80.48 25.65 77.46 28.76 75.00 30.00
C 73.52 30.75 72.70 30.88 71.00 31.00
C 70.10 31.35 67.80 34.36 69.00 34.00
C 70.13 34.53 72.25 36.90 73.00 38.00
C 73.23 38.34 73.00 39.00 73.00 39.00
C 74.65 37.56 75.61 34.86 77.00 33.00
C 78.70 30.71 80.66 28.56 83.00 27.00
C 88.74 23.18 96.76 21.18 103.00 25.00
C 105.71 26.66 109.58 30.18 111.00 33.00
C 111.75 34.49 111.82 35.31 112.00 37.00
C 112.49 39.05 113.17 41.31 113.00 44.00
C 113.83 40.28 118.56 37.97 121.00 35.00
C 123.43 30.82 126.27 26.67 130.25 23.25 C 134.22 19.83 143.76 19.50 145.00 26.00
C 150.09 26.16 148.77 31.69 147.00 34.00
C 143.32 38.81 143.54 37.78 145.00 44.00
C 145.11 44.47 145.00 45.00 145.00 45.00
C 149.04 47.93 155.49 33.29 159.00 31.00
C 159.16 30.56 159.00 30.00 159.00 30.00
C 160.27 27.41 164.44 23.18 167.00 22.00
C 170.15 20.54 173.86 20.55 177.00 22.00
C 179.65 23.22 183.56 27.25 184.00 30.00
C 184.08 30.49 184.11 31.53 184.00 32.00
C 183.22 35.37 178.46 35.24 178.00 39.00
C 177.94 39.49 178.00 40.00 178.00 40.00
C 178.83 41.03 180.26 45.46 181.00 46.00
C 183.23 47.15 189.18 30.93 192.00 28.00
C 193.42 25.77 194.05 25.61 196.00 24.00
C 197.43 22.82 199.30 23.27 198.00 21.00
C 195.90 19.65 194.90 18.29 194.00 16.00
C 193.01 13.47 193.13 12.47 194.00 10.00
C 194.69 6.36 196.95 5.87 200.00 5.00
C 202.30 4.34 202.74 4.36 205.00 5.00
C 208.14 5.37 207.90 6.19 210.00 8.00
C 211.72 9.48 214.09 10.82 215.00 13.00
C 215.31 13.90 215.31 17.10 215.00 18.00
C 214.72 20.63 211.62 23.72 209.00 24.00
C 206.93 24.28 204.07 24.28 202.00 24.00
C 202.01 24.92 202.39 26.28 203.00 27.00
C 208.79 29.15 205.56 39.72 203.00 44.00
C 204.10 47.67 211.51 31.76 213.00 29.00
C 216.40 22.70 216.77 23.05 223.00 25.00
C 225.45 25.77 225.56 25.67 228.00 25.00
C 233.18 23.58 236.75 21.95 242.00 25.00
C 244.30 26.34 246.65 28.79 248.00 31.00
C 248.34 31.57 248.63 32.52 249.00 33.00
C 250.58 35.08 250.83 36.16 251.00 39.00
C 251.09 40.49 251.30 42.54 251.00 44.00
C 254.87 40.54 256.37 45.00 258.00 47.00
C 259.50 48.55 263.59 50.58 259.00 53.00
C 258.77 53.34 259.00 54.00 259.00 54.00
C 256.68 60.43 251.51 61.32 246.00 63.00
C 244.34 63.74 244.26 63.67 243.00 65.00
C 241.32 66.78 240.01 68.58 238.00 70.00
C 237.00 71.29 235.35 71.53 234.00 72.00
C 231.37 72.93 227.94 73.65 225.00 73.00
C 221.67 72.26 220.38 68.49 217.00 68.00
C 216.60 70.30 216.54 73.37 215.00 75.00
C 214.73 76.94 214.48 78.19 214.00 80.00
C 213.43 82.15 212.86 83.23 212.00 85.00
C 209.90 89.30 208.58 92.93 203.00 91.00
C 200.61 90.17 197.28 87.56 196.00 85.00
C 194.80 82.61 195.28 80.63 195.00 78.00
C 194.84 76.51 195.34 74.11 194.00 73.00
C 193.50 73.00 193.00 73.00 193.00 73.00
C 189.59 72.34 187.10 68.55 185.00 66.00
C 183.75 66.30 183.29 67.83 182.00 68.00
C 179.73 70.40 177.02 71.22 174.00 72.00
C 170.69 72.86 164.16 74.34 161.00 72.00
C 160.50 72.00 160.00 72.00 160.00 72.00
C 156.59 71.34 154.10 67.55 152.00 65.00
C 149.69 64.55 148.93 67.53 147.00 68.00
C 141.42 71.83 136.07 73.64 129.00 73.00
C 126.14 72.74 125.12 72.61 123.00 71.00
C 122.39 70.53 121.62 70.38 121.00 70.00
C 118.49 68.47 117.09 65.69 115.00 64.00
C 112.69 62.47 114.12 62.85 111.00 63.00
C 109.75 63.06 108.21 62.72 107.00 63.00
C 103.91 64.05 101.68 69.67 98.00 71.00
C 97.56 71.16 97.00 71.00 97.00 71.00
C 95.65 72.66 94.11 72.74 92.00 73.00
C 88.61 73.42 85.04 73.14 82.00 72.00
C 78.45 70.67 75.07 67.10 73.00 64.00
C 71.69 62.04 71.67 61.16 71.00 59.00
C 70.65 57.87 68.97 54.00 69.00 53.00
C 68.40 55.48 67.90 57.57 67.00 60.00
C 65.49 64.08 63.76 67.50 61.00 71.00
C 59.46 72.95 57.96 74.54 56.00 76.00
C 53.66 78.05 50.85 79.12 48.00 80.00
C 46.17 80.57 45.03 80.85 43.00 81.00
C 40.07 81.55 35.92 83.16 33.00 81.00
C 32.50 81.00 32.00 81.00 32.00 81.00
C 26.63 80.89 23.93 77.10 21.00 74.00
C 16.86 71.48 15.07 68.33 14.00 64.00
C 13.33 61.28 12.83 59.76 14.00 57.00
C 14.00 56.50 13.96 55.50 14.00 55.00
C 14.23 52.38 15.80 50.35 18.00 49.00
C 18.64 48.61 19.25 48.14 20.00 48.00
C 19.08 46.59 18.00 44.70 16.00 45.00
C 16.49 42.78 19.57 43.26 20.00 41.00
C 19.64 41.47 23.39 34.18 22.00 39.00
C 22.98 39.98 24.14 41.94 25.00 43.00
C 26.30 44.60 29.75 47.90 26.00 50.00
C 28.58 51.01 30.15 51.96 30.00 55.00
C 29.98 55.50 30.00 56.00 30.00 56.00
C 32.85 57.07 35.47 58.76 38.00 60.00
C 38.50 60.02 39.50 60.00 40.00 60.00
C 41.22 56.00 32.78 53.43 31.25 49.75 C 29.72 46.08 25.93 38.15 29.00 34.00
C 29.05 33.50 29.00 33.00 29.00 33.00
C 28.72 28.85 30.21 25.54 32.00 22.00
C 33.65 18.75 35.74 15.86 38.00 13.00
C 39.54 11.05 41.04 9.46 43.00 8.00
C 47.87 4.38 52.87 1.46 59.00 1.00
C 61.20 0.83 63.81 0.75 66.00 1.00
C 70.16 1.48 75.00 3.92 77.00 8.00
M 22.00 22.00 
C 23.15 23.15 23.82 25.51 26.00 25.00
C 26.62 28.03 21.37 26.89 22.00 30.00
C 20.84 31.18 19.66 34.84 19.00 30.00
C 18.93 29.51 19.00 29.00 19.00 29.00
C 17.60 28.43 16.41 27.55 15.00 27.00
C 15.60 25.18 17.56 24.85 19.00 24.00
C 19.24 23.67 18.94 22.49 19.00 22.00
C 19.62 17.14 20.84 20.84 22.00 22.00
M 250.00 77.00 
C 250.90 78.04 252.63 79.01 254.00 79.00
C 254.51 80.41 253.19 81.15 252.00 81.00
C 251.13 82.73 248.55 84.34 249.00 87.00
C 246.81 84.74 245.66 81.99 243.00 80.00
C 245.56 78.55 246.75 75.67 248.00 73.00
C 249.83 73.49 250.18 75.35 250.00 77.00
M 269.00 87.00 
C 269.99 90.27 266.14 90.39 264.00 91.00
C 263.42 94.01 261.17 96.56 262.00 100.00
C 258.48 97.18 256.34 90.20 252.00 88.00
C 257.15 88.65 259.41 83.38 259.00 79.00
C 264.80 78.27 261.57 89.43 269.00 87.00 Z"/>
</g>
<g fill="None" fill-opacity="0.0" stroke="#C6E2F9" stroke-opacity="0.97" stroke-width="0.3"><path d="
M 43.00 8.00 
C 41.50 9.31 39.32 11.57 38.00 13.00
C 35.74 15.86 33.65 18.75 32.00 22.00
C 31.12 24.47 30.67 29.95 29.00 33.00
C 29.00 33.00 29.05 33.50 29.00 34.00
C 28.19 42.52 31.37 48.37 37.00 54.00
C 42.74 56.66 48.73 54.05 53.00 50.00
C 52.59 54.35 47.67 59.50 43.00 59.00
C 42.08 59.27 41.48 59.99 40.00 60.00
C 39.50 60.00 38.50 60.02 38.00 60.00
C 35.22 59.89 32.08 58.94 30.00 57.00
C 27.80 56.17 26.92 53.88 26.00 52.00
C 29.07 50.82 28.36 54.02 30.00 55.00
C 30.15 51.96 28.58 51.01 26.00 50.00
C 24.89 49.57 26.40 50.77 25.00 49.00
C 24.24 48.75 21.77 49.73 21.00 50.00
C 20.10 50.32 18.82 50.63 18.00 51.00
C 16.53 51.66 14.61 53.28 14.00 55.00
C 13.96 55.50 14.00 56.50 14.00 57.00
C 14.00 59.28 13.74 61.74 14.00 64.00
C 15.07 68.33 16.86 71.48 21.00 74.00
C 21.68 74.41 22.31 74.66 23.00 75.00
C 29.43 78.15 29.78 76.81 38.00 77.00 C 46.22 77.19 55.25 69.69 58.92 62.92 C 62.58 56.14 62.08 55.18 64.78 50.78 C 67.48 46.37 65.10 38.44 69.00 37.00
C 66.69 35.95 67.45 34.00 64.00 34.00
C 62.99 34.30 62.18 33.97 62.00 34.00
C 59.02 35.67 51.52 38.95 50.00 34.00
C 50.11 34.05 43.85 32.30 46.00 27.00 C 48.15 21.70 46.90 20.99 52.08 18.08 C 57.26 15.18 59.33 17.49 60.00 21.00
C 60.38 22.97 61.40 24.79 61.00 27.00
C 62.54 26.63 63.40 28.43 65.00 28.00
C 67.66 25.07 72.00 26.63 74.75 22.75 C 77.50 18.87 77.00 13.89 77.00 9.00
C 77.00 8.50 77.00 8.00 77.00 8.00
C 75.00 3.92 70.16 1.48 66.00 1.00
C 64.75 0.97 60.25 1.02 59.00 1.00
C 52.87 1.46 47.87 4.38 43.00 8.00 Z"/>
</g>
<g fill="None" fill-opacity="0.0" stroke="#DAE8F3" stroke-opacity="0.73" stroke-width="0.3"><path d="
M 66.00 1.00 
C 63.81 0.75 61.20 0.83 59.00 1.00
C 60.25 1.02 64.75 0.97 66.00 1.00 Z"/>
</g>
<g fill="None" fill-opacity="0.0" stroke="#FFFFFF" stroke-opacity="0.01" stroke-width="0.3"><path d="
M 200.00 5.00 
C 201.52 4.82 203.48 4.82 205.00 5.00
C 202.74 4.36 202.30 4.34 200.00 5.00 Z"/>
</g>
<g fill="None" fill-opacity="0.0" stroke="#C7E1F8" stroke-opacity="0.94" stroke-width="0.3"><path d="
M 194.00 10.00 
C 193.70 11.56 193.68 14.44 194.00 16.00
C 194.90 18.29 195.90 19.65 198.00 21.00
C 198.35 21.23 199.00 21.00 199.00 21.00
C 203.85 18.71 213.03 19.01 211.00 10.00
C 210.14 9.12 210.47 9.19 210.00 8.00
C 207.90 6.19 208.14 5.37 205.00 5.00
C 203.48 4.82 201.52 4.82 200.00 5.00
C 196.95 5.87 194.69 6.36 194.00 10.00 Z"/>
</g>
<g fill="None" fill-opacity="0.0" stroke="#FFFFFF" stroke-opacity="0.03" stroke-width="0.3"><path d="
M 38.00 13.00 
C 39.32 11.57 41.50 9.31 43.00 8.00
C 41.04 9.46 39.54 11.05 38.00 13.00 Z"/>
</g>
<g fill="None" fill-opacity="0.0" stroke="#CED4E4" stroke-opacity="0.34" stroke-width="0.3"><path d="
M 77.00 9.00 
C 78.63 10.06 80.07 11.54 81.00 13.00
C 80.46 10.25 78.84 9.84 77.00 8.00
C 77.00 8.00 77.00 8.50 77.00 9.00 Z"/>
</g>
<g fill="None" fill-opacity="0.0" stroke="#D3D8E8" stroke-opacity="0.35" stroke-width="0.3"><path d="
M 211.00 10.00 
C 212.05 11.07 213.09 11.78 214.00 13.00
C 214.18 13.24 215.00 13.00 215.00 13.00
C 214.09 10.82 211.72 9.48 210.00 8.00
C 210.47 9.19 210.14 9.12 211.00 10.00 Z"/>
</g>
<g fill="None" fill-opacity="0.0" stroke="#5A6FBF" stroke-opacity="0.98" stroke-width="0.3"><path d="
M 65.00 28.00 
C 65.19 28.09 64.87 29.54 65.00 30.00
C 65.91 31.48 69.58 31.10 71.00 31.00
C 72.70 30.88 73.52 30.75 75.00 30.00
C 76.86 28.85 79.94 24.66 81.00 23.00
C 81.00 23.00 81.00 22.50 81.00 22.00
C 81.00 19.33 81.00 16.67 81.00 14.00
C 81.00 14.00 81.09 13.48 81.00 13.00
C 80.07 11.54 78.63 10.06 77.00 9.00
C 77.00 13.89 77.50 18.87 74.75 22.75 C 72.00 26.63 67.66 25.07 65.00 28.00 Z"/>
</g>
<g fill="None" fill-opacity="0.0" stroke="#FCFCFE" stroke-opacity="0.08" stroke-width="0.3"><path d="
M 194.00 16.00 
C 193.68 14.44 193.70 11.56 194.00 10.00
C 193.13 12.47 193.01 13.47 194.00 16.00 Z"/>
</g>
<g fill="None" fill-opacity="0.0" stroke="#566BBE" stroke-opacity="0.99" stroke-width="0.3"><path d="
M 199.00 21.00 
C 199.97 22.62 200.28 22.50 202.00 23.00
C 204.07 22.72 206.93 22.72 209.00 23.00
C 211.85 22.07 213.07 20.84 214.00 18.00
C 213.69 17.10 213.69 13.90 214.00 13.00
C 213.09 11.78 212.05 11.07 211.00 10.00
C 213.03 19.01 203.85 18.71 199.00 21.00 Z"/>
</g>
<g fill="None" fill-opacity="0.0" stroke="#929BCA" stroke-opacity="0.66" stroke-width="0.3"><path d="
M 214.00 18.00 
C 214.05 17.85 215.00 18.00 215.00 18.00
C 215.31 17.10 215.31 13.90 215.00 13.00
C 215.00 13.00 214.18 13.24 214.00 13.00
C 213.69 13.90 213.69 17.10 214.00 18.00 Z"/>
</g>
<g fill="None" fill-opacity="0.0" stroke="#CFD2E1" stroke-opacity="0.30" stroke-width="0.3"><path d="
M 81.00 22.00 
C 82.50 19.97 82.53 16.07 81.00 14.00
C 81.00 16.67 81.00 19.33 81.00 22.00 Z"/>
</g>
<g fill="None" fill-opacity="0.0" stroke="#5B72BF" stroke-opacity="0.97" stroke-width="0.3"><path d="
M 50.00 34.00 
C 49.77 33.25 49.96 31.79 50.00 31.00
C 50.18 27.57 52.56 23.40 56.00 22.00
C 57.28 21.48 58.80 22.10 60.00 21.00
C 59.33 17.49 57.26 15.18 52.08 18.08 C 46.90 20.99 48.15 21.70 46.00 27.00 C 43.85 32.30 50.11 34.05 50.00 34.00 Z"/>
</g>
<g fill="None" fill-opacity="0.0" stroke="#CACFE3" stroke-opacity="0.31" stroke-width="0.3"><path d="
M 209.00 23.00 
C 208.85 23.05 209.00 24.00 209.00 24.00
C 211.62 23.72 214.72 20.63 215.00 18.00
C 215.00 18.00 214.05 17.85 214.00 18.00
C 213.07 20.84 211.85 22.07 209.00 23.00 Z"/>
</g>
<g fill="None" fill-opacity="0.0" stroke="#FDF7F0" stroke-opacity="0.13" stroke-width="0.3"><path d="
M 19.00 22.00 
C 19.91 19.38 20.70 21.08 22.00 22.00
C 20.84 20.84 19.62 17.14 19.00 22.00 Z"/>
</g>
<g fill="None" fill-opacity="0.0" stroke="#FADA8C" stroke-opacity="0.72" stroke-width="0.3"><path d="
M 19.00 22.00 
C 18.94 22.49 19.24 23.67 19.00 24.00
C 18.24 25.07 17.67 26.39 16.00 26.00
C 16.56 27.27 18.85 27.25 19.00 29.00
C 19.00 29.00 18.93 29.51 19.00 30.00
C 20.18 32.48 20.52 31.08 22.00 30.00
C 21.37 26.89 26.62 28.03 26.00 25.00
C 23.82 25.51 23.15 23.15 22.00 22.00
C 20.70 21.08 19.91 19.38 19.00 22.00 Z"/>
</g>
<g fill="None" fill-opacity="0.0" stroke="#000000" stroke-opacity="0.00" stroke-width="0.3"><path d="
M 56.00 22.00 
C 53.71 23.16 50.45 29.02 50.00 31.00
C 49.96 31.79 49.77 33.25 50.00 34.00
C 51.52 38.95 59.02 35.67 62.00 34.00
C 64.28 32.72 65.67 32.31 65.00 30.00
C 64.87 29.54 65.19 28.09 65.00 28.00
C 63.40 28.43 62.54 26.63 61.00 27.00
C 61.40 24.79 60.38 22.97 60.00 21.00
C 58.80 22.10 57.28 21.48 56.00 22.00 Z"/>
</g>
<g fill="None" fill-opacity="0.0" stroke="#C6E1F9" stroke-opacity="0.97" stroke-width="0.3"><path d="
M 121.00 35.00 
C 118.73 38.91 116.65 43.25 113.00 46.00
C 112.91 46.35 112.28 46.77 112.00 47.00
C 110.90 47.88 109.70 48.29 108.00 48.00
C 109.00 42.06 109.84 35.58 107.00 30.00
C 105.65 28.70 104.44 26.04 103.00 25.00
C 96.76 21.18 88.74 23.18 83.00 27.00
C 81.27 28.35 78.42 31.37 77.00 33.00
C 75.61 34.86 74.65 37.56 73.00 39.00
C 72.35 42.46 71.10 45.65 70.00 49.00
C 69.89 50.74 70.63 56.57 71.00 59.00
C 71.67 61.16 71.69 62.04 73.00 64.00
C 74.17 65.49 76.62 66.77 78.00 68.00
C 92.03 74.34 100.48 57.19 113.00 56.00
C 113.21 59.23 114.31 61.45 111.00 63.00
C 114.12 62.85 112.69 62.47 115.00 64.00
C 116.22 64.81 118.06 65.99 119.00 67.00
C 120.26 67.58 119.99 67.02 121.00 68.00
C 131.40 73.03 141.32 64.18 149.00 59.00
C 150.16 62.53 149.94 65.40 147.00 68.00
C 148.93 67.53 149.69 64.55 152.00 65.00
C 154.10 67.55 156.59 71.34 160.00 72.00
C 158.65 71.14 156.74 69.63 156.00 68.00
C 166.07 71.46 176.09 66.32 183.00 59.00
C 184.87 60.14 183.61 63.13 184.00 65.00
C 184.66 66.37 187.90 67.97 189.00 69.00
C 192.73 69.99 195.71 67.75 199.00 67.00
C 198.61 69.07 197.91 71.06 197.00 73.00
C 196.51 74.42 195.16 76.94 195.00 78.00
C 195.28 80.63 194.80 82.61 196.00 85.00
C 196.87 86.08 198.95 86.11 200.00 87.00
C 212.66 88.81 209.54 63.38 215.00 58.00
C 217.22 59.83 214.89 63.80 217.00 66.00
C 217.67 67.11 220.06 68.15 221.00 69.00
C 229.05 71.31 234.75 63.60 239.75 59.75 C 244.76 55.90 255.29 56.68 256.00 48.00
C 256.08 46.98 255.95 44.67 255.00 44.00
C 254.72 43.91 250.40 44.30 251.00 44.00
C 250.51 46.39 248.04 48.98 245.00 48.00
C 247.51 42.77 247.39 36.56 246.00 31.00
C 245.15 30.13 245.52 30.13 245.00 29.00
C 243.95 28.02 243.09 25.79 242.00 25.00
C 236.75 21.95 233.18 23.58 228.00 25.00
C 224.21 26.71 226.12 26.54 223.00 25.00
C 216.77 23.05 216.40 22.70 213.00 29.00
C 211.15 34.01 209.34 48.40 202.00 48.00
C 192.15 47.46 202.77 32.87 202.00 28.00
C 202.03 28.19 201.06 26.15 201.00 26.00
C 199.53 24.54 199.29 23.40 196.00 24.00
C 194.05 25.61 193.42 25.77 192.00 28.00
C 190.33 30.61 187.79 36.47 187.07 39.07 C 186.36 41.68 184.33 49.72 181.00 47.00
C 180.67 48.16 180.86 49.34 179.00 49.00
C 176.84 40.61 169.93 31.56 181.00 27.00
C 179.91 25.79 178.31 22.72 177.00 22.00
C 173.86 20.55 170.15 20.54 167.00 22.00
C 164.23 23.53 161.76 28.07 159.00 30.00
C 159.00 30.00 159.16 30.56 159.00 31.00
C 157.02 36.50 151.37 44.78 146.00 47.00
C 145.94 47.03 145.64 50.24 144.00 49.00
C 141.52 40.61 134.06 32.59 145.00 27.00
C 145.20 26.60 145.00 26.00 145.00 26.00
C 143.76 19.50 134.22 19.83 130.25 23.25 C 126.27 26.67 123.43 30.82 121.00 35.00
M 128.00 44.00 
C 129.36 42.70 129.89 43.42 130.00 45.00
C 130.26 48.84 126.36 48.87 125.00 49.00
C 115.08 49.98 125.54 40.20 128.00 36.00
C 130.08 38.15 130.54 41.77 128.00 44.00
M 165.00 42.00 
C 165.75 46.87 164.69 48.94 160.00 49.00
C 157.92 50.66 155.91 49.16 155.00 47.00
C 157.90 43.69 160.07 39.47 163.00 36.00
C 164.80 37.25 165.21 39.80 165.00 42.00
M 97.00 41.00 
C 97.74 45.51 93.84 50.82 89.00 50.00
C 76.58 47.91 94.88 28.07 97.00 41.00
M 230.00 42.00 
C 231.30 41.84 232.36 41.80 233.00 43.00
C 234.54 45.91 227.59 51.08 225.00 50.00
C 220.71 51.47 220.37 42.29 222.92 39.92 C 225.48 37.56 232.41 34.56 233.00 41.00
C 232.00 41.11 230.27 40.53 230.00 42.00 Z"/>
</g>
<g fill="None" fill-opacity="0.0" stroke="#F6F8FC" stroke-opacity="0.10" stroke-width="0.3"><path d="
M 196.00 24.00 
C 199.29 23.40 199.53 24.54 201.00 26.00
C 201.48 26.48 202.39 26.77 203.00 27.00
C 202.39 26.28 202.01 24.92 202.00 24.00
C 202.00 23.50 202.00 23.00 202.00 23.00
C 200.28 22.50 199.97 22.62 199.00 21.00
C 199.00 21.00 198.35 21.23 198.00 21.00
C 199.30 23.27 197.43 22.82 196.00 24.00 Z"/>
</g>
<g fill="None" fill-opacity="0.0" stroke="#F7FAFC" stroke-opacity="0.20" stroke-width="0.3"><path d="
M 29.00 33.00 
C 30.67 29.95 31.12 24.47 32.00 22.00
C 30.21 25.54 28.72 28.85 29.00 33.00 Z"/>
</g>
<g fill="None" fill-opacity="0.0" stroke="#E1E4F0" stroke-opacity="0.17" stroke-width="0.3"><path d="
M 50.00 31.00 
C 50.45 29.02 53.71 23.16 56.00 22.00
C 52.56 23.40 50.18 27.57 50.00 31.00 Z"/>
</g>
<g fill="None" fill-opacity="0.0" stroke="#FCFDFF" stroke-opacity="0.11" stroke-width="0.3"><path d="
M 159.00 30.00 
C 161.76 28.07 164.23 23.53 167.00 22.00
C 164.44 23.18 160.27 27.41 159.00 30.00 Z"/>
</g>
<g fill="None" fill-opacity="0.0" stroke="#EEEEF4" stroke-opacity="0.16" stroke-width="0.3"><path d="
M 181.00 27.00 
C 181.79 27.87 183.66 28.95 184.00 30.00
C 183.56 27.25 179.65 23.22 177.00 22.00
C 178.31 22.72 179.91 25.79 181.00 27.00 Z"/>
</g>
<g fill="None" fill-opacity="0.0" stroke="#BBC1D7" stroke-opacity="0.42" stroke-width="0.3"><path d="
M 75.00 30.00 
C 77.46 28.76 80.48 25.65 81.00 23.00
C 79.94 24.66 76.86 28.85 75.00 30.00 Z"/>
</g>
<g fill="None" fill-opacity="0.0" stroke="#8A98C6" stroke-opacity="0.68" stroke-width="0.3"><path d="
M 202.00 24.00 
C 204.07 24.28 206.93 24.28 209.00 24.00
C 209.00 24.00 208.85 23.05 209.00 23.00
C 206.93 22.72 204.07 22.72 202.00 23.00
C 202.00 23.00 202.00 23.50 202.00 24.00 Z"/>
</g>
<g fill="None" fill-opacity="0.0" stroke="#FCF4E1" stroke-opacity="0.20" stroke-width="0.3"><path d="
M 19.00 29.00 
C 18.85 27.25 16.56 27.27 16.00 26.00
C 17.67 26.39 18.24 25.07 19.00 24.00
C 17.56 24.85 15.60 25.18 15.00 27.00
C 16.41 27.55 17.60 28.43 19.00 29.00 Z"/>
</g>
<g fill="None" fill-opacity="0.0" stroke="#FBD985" stroke-opacity="0.78" stroke-width="0.3"><path d="
M 7.00 31.00 
C 6.09 33.18 5.80 34.69 3.00 35.00
C 2.01 35.11 0.99 34.91 0.00 35.00
L 0.00 36.00
C 5.95 34.80 5.87 43.14 8.00 45.00
C 9.70 45.34 10.40 43.06 11.00 42.00
C 10.97 38.03 14.66 36.35 18.00 36.00
C 12.64 34.34 11.76 27.57 8.00 25.00
C 7.57 26.87 7.72 29.28 7.00 31.00 Z"/>
</g>
<g fill="None" fill-opacity="0.0" stroke="#EAEFF5" stroke-opacity="0.19" stroke-width="0.3"><path d="
M 107.00 30.00 
C 107.96 30.93 110.34 31.96 111.00 33.00
C 109.58 30.18 105.71 26.66 103.00 25.00
C 104.44 26.04 105.65 28.70 107.00 30.00 Z"/>
</g>
<g fill="None" fill-opacity="0.0" stroke="#F7FAFE" stroke-opacity="0.17" stroke-width="0.3"><path d="
M 228.00 25.00 
C 225.56 25.67 225.45 25.77 223.00 25.00
C 226.12 26.54 224.21 26.71 228.00 25.00 Z"/>
</g>
<g fill="None" fill-opacity="0.0" stroke="#FFFFFF" stroke-opacity="0.04" stroke-width="0.3"><path d="
M 245.00 29.00 
C 245.76 29.71 247.38 30.27 248.00 31.00
C 246.65 28.79 244.30 26.34 242.00 25.00
C 243.09 25.79 243.95 28.02 245.00 29.00 Z"/>
</g>
<g fill="None" fill-opacity="0.0" stroke="#B5BFDD" stroke-opacity="0.46" stroke-width="0.3"><path d="
M 145.00 27.00 
C 148.07 28.25 148.72 31.39 147.00 34.00
C 148.77 31.69 150.09 26.16 145.00 26.00
C 145.00 26.00 145.20 26.60 145.00 27.00 Z"/>
</g>
<g fill="None" fill-opacity="0.0" stroke="#C6CCE2" stroke-opacity="0.40" stroke-width="0.3"><path d="
M 202.00 28.00 
C 202.80 28.40 204.16 27.68 205.00 28.00
C 205.59 33.76 204.33 39.01 202.00 44.00
C 202.13 43.78 203.00 44.00 203.00 44.00
C 205.56 39.72 208.79 29.15 203.00 27.00
C 202.39 26.77 201.48 26.48 201.00 26.00
C 201.06 26.15 202.03 28.19 202.00 28.00 Z"/>
</g>
<g fill="None" fill-opacity="0.0" stroke="#FFFFFF" stroke-opacity="0.02" stroke-width="0.3"><path d="
M 77.00 33.00 
C 78.42 31.37 81.27 28.35 83.00 27.00
C 80.66 28.56 78.70 30.71 77.00 33.00 Z"/>
</g>
<g fill="None" fill-opacity="0.0" stroke="#5A72BE" stroke-opacity="0.99" stroke-width="0.3"><path d="
M 146.00 47.00 
C 145.68 46.89 145.06 45.30 145.00 45.00
C 145.00 45.00 145.11 44.47 145.00 44.00
C 139.93 37.67 144.17 38.31 147.00 34.00
C 148.72 31.39 148.07 28.25 145.00 27.00
C 134.06 32.59 141.52 40.61 144.00 49.00
C 145.64 50.24 145.94 47.03 146.00 47.00 Z"/>
</g>
<g fill="None" fill-opacity="0.0" stroke="#5A6FBC" stroke-opacity="0.98" stroke-width="0.3"><path d="
M 181.00 47.00 
C 180.75 46.80 181.00 46.00 181.00 46.00
C 179.55 44.19 178.56 42.40 178.00 40.00
C 178.00 40.00 177.94 39.49 178.00 39.00
C 175.54 35.74 182.58 34.43 184.00 32.00
C 184.11 31.53 184.08 30.49 184.00 30.00
C 183.66 28.95 181.79 27.87 181.00 27.00
C 169.93 31.56 176.84 40.61 179.00 49.00
C 180.86 49.34 180.67 48.16 181.00 47.00 Z"/>
</g>
<g fill="None" fill-opacity="0.0" stroke="#FAFCFE" stroke-opacity="0.11" stroke-width="0.3"><path d="
M 181.00 46.00 
C 181.00 46.00 180.75 46.80 181.00 47.00
C 184.33 49.72 186.36 41.68 187.07 39.07 C 187.79 36.47 190.33 30.61 192.00 28.00
C 189.18 30.93 183.23 47.15 181.00 46.00 Z"/>
</g>
<g fill="None" fill-opacity="0.0" stroke="#576DBC" stroke-opacity="1.00" stroke-width="0.3"><path d="
M 202.00 48.00 
C 202.15 46.69 201.81 45.31 202.00 44.00
C 204.33 39.01 205.59 33.76 205.00 28.00
C 204.16 27.68 202.80 28.40 202.00 28.00
C 202.77 32.87 192.15 47.46 202.00 48.00 Z"/>
</g>
<g fill="None" fill-opacity="0.0" stroke="#F1F3F5" stroke-opacity="0.09" stroke-width="0.3"><path d="
M 203.00 44.00 
C 203.00 44.00 202.13 43.78 202.00 44.00
C 201.81 45.31 202.15 46.69 202.00 48.00
C 209.34 48.40 211.15 34.01 213.00 29.00
C 211.51 31.76 204.10 47.67 203.00 44.00 Z"/>
</g>
<g fill="None" fill-opacity="0.0" stroke="#99A5CE" stroke-opacity="0.81" stroke-width="0.3"><path d="
M 246.00 31.00 
C 246.67 31.69 248.50 32.29 249.00 33.00
C 248.63 32.52 248.34 31.57 248.00 31.00
C 247.38 30.27 245.76 29.71 245.00 29.00
C 245.52 30.13 245.15 30.13 246.00 31.00 Z"/>
</g>
<g fill="None" fill-opacity="0.0" stroke="#FDF8EA" stroke-opacity="0.14" stroke-width="0.3"><path d="
M 22.00 30.00 
C 20.52 31.08 20.18 32.48 19.00 30.00
C 19.66 34.84 20.84 31.18 22.00 30.00 Z"/>
</g>
<g fill="None" fill-opacity="0.0" stroke="#ECF1F7" stroke-opacity="0.17" stroke-width="0.3"><path d="
M 62.00 34.00 
C 62.18 33.97 62.99 34.30 64.00 34.00
C 66.04 33.39 66.60 32.87 69.00 34.00
C 67.80 34.36 70.10 31.35 71.00 31.00
C 69.58 31.10 65.91 31.48 65.00 30.00
C 65.67 32.31 64.28 32.72 62.00 34.00 Z"/>
</g>
<g fill="None" fill-opacity="0.0" stroke="#5B73BD" stroke-opacity="0.96" stroke-width="0.3"><path d="
M 112.00 47.00 
C 111.07 44.10 112.32 40.05 112.00 37.00
C 111.82 35.31 111.75 34.49 111.00 33.00
C 110.34 31.96 107.96 30.93 107.00 30.00
C 109.84 35.58 109.00 42.06 108.00 48.00
C 109.70 48.29 110.90 47.88 112.00 47.00 Z"/>
</g>
<g fill="None" fill-opacity="0.0" stroke="#FDF5DD" stroke-opacity="0.24" stroke-width="0.3"><path d="
M 3.00 35.00 
C 5.80 34.69 6.09 33.18 7.00 31.00
C 6.47 32.02 4.18 34.66 3.00 35.00 Z"/>
</g>
<g fill="None" fill-opacity="0.0" stroke="#F8FBFD" stroke-opacity="0.12" stroke-width="0.3"><path d="
M 145.00 45.00 
C 145.06 45.30 145.68 46.89 146.00 47.00
C 151.37 44.78 157.02 36.50 159.00 31.00
C 155.49 33.29 149.04 47.93 145.00 45.00 Z"/>
</g>
<g fill="None" fill-opacity="0.0" stroke="#5A70BD" stroke-opacity="0.98" stroke-width="0.3"><path d="
M 251.00 44.00 
C 251.30 42.54 251.09 40.49 251.00 39.00
C 250.89 38.25 249.62 33.89 249.00 33.00
C 248.50 32.29 246.67 31.69 246.00 31.00
C 247.39 36.56 247.51 42.77 245.00 48.00
C 248.04 48.98 250.51 46.39 251.00 44.00 Z"/>
</g>
<g fill="None" fill-opacity="0.0" stroke="#C7CCE3" stroke-opacity="0.33" stroke-width="0.3"><path d="
M 178.00 39.00 
C 178.46 35.24 183.22 35.37 184.00 32.00
C 182.58 34.43 175.54 35.74 178.00 39.00 Z"/>
</g>
<g fill="None" fill-opacity="0.0" stroke="#CAD9F0" stroke-opacity="0.62" stroke-width="0.3"><path d="
M 64.00 34.00 
C 67.45 34.00 66.69 35.95 69.00 37.00
C 70.00 37.46 72.19 36.78 73.00 38.00
C 72.25 36.90 70.13 34.53 69.00 34.00
C 66.60 32.87 66.04 33.39 64.00 34.00 Z"/>
</g>
<g fill="None" fill-opacity="0.0" stroke="#C6CAE4" stroke-opacity="0.33" stroke-width="0.3"><path d="
M 251.00 39.00 
C 250.83 36.16 250.58 35.08 249.00 33.00
C 249.62 33.89 250.89 38.25 251.00 39.00 Z"/>
</g>
<g fill="None" fill-opacity="0.0" stroke="#F4F7FB" stroke-opacity="0.16" stroke-width="0.3"><path d="
M 40.00 60.00 
C 41.48 59.99 42.08 59.27 43.00 59.00
C 40.21 58.66 38.69 55.69 37.00 54.00
C 31.37 48.37 28.19 42.52 29.00 34.00
C 25.93 38.15 29.72 46.08 31.25 49.75 C 32.78 53.43 41.22 56.00 40.00 60.00 Z"/>
</g>
<g fill="None" fill-opacity="0.0" stroke="#D4D9EA" stroke-opacity="0.25" stroke-width="0.3"><path d="
M 145.00 44.00 
C 143.54 37.78 143.32 38.81 147.00 34.00
C 144.17 38.31 139.93 37.67 145.00 44.00 Z"/>
</g>
<g fill="None" fill-opacity="0.0" stroke="#FAFDFE" stroke-opacity="0.09" stroke-width="0.3"><path d="
M 113.00 44.00 
C 112.97 44.50 113.12 45.53 113.00 46.00
C 116.65 43.25 118.73 38.91 121.00 35.00
C 118.56 37.97 113.83 40.28 113.00 44.00 Z"/>
</g>
<g fill="None" fill-opacity="0.0" stroke="#586FBB" stroke-opacity="1.00" stroke-width="0.3"><path d="
M 125.00 49.00 
C 125.64 48.47 126.59 46.61 127.00 46.00
C 127.40 45.41 127.62 44.54 128.00 44.00
C 130.54 41.77 130.08 38.15 128.00 36.00
C 125.54 40.20 115.08 49.98 125.00 49.00 Z"/>
</g>
<g fill="None" fill-opacity="0.0" stroke="#5C71BD" stroke-opacity="0.98" stroke-width="0.3"><path d="
M 160.00 49.00 
C 160.26 48.79 160.77 48.26 161.00 48.00
C 162.06 46.80 163.20 45.16 164.00 44.00
C 164.41 43.40 164.85 42.72 165.00 42.00
C 165.21 39.80 164.80 37.25 163.00 36.00
C 160.07 39.47 157.90 43.69 155.00 47.00
C 155.91 49.16 157.92 50.66 160.00 49.00 Z"/>
</g>
<g fill="None" fill-opacity="0.0" stroke="#F9ECD6" stroke-opacity="0.33" stroke-width="0.3"><path d="
M 20.00 41.00 
C 20.26 40.72 21.92 39.27 22.00 39.00
C 23.39 34.18 19.64 41.47 20.00 41.00 Z"/>
</g>
<g fill="None" fill-opacity="0.0" stroke="#596FC0" stroke-opacity="0.98" stroke-width="0.3"><path d="
M 23.00 75.00 
C 25.92 77.71 28.68 79.26 32.00 81.00
C 32.00 81.00 32.50 81.00 33.00 81.00
C 36.30 81.00 39.71 81.24 43.00 81.00
C 45.03 80.85 46.17 80.57 48.00 80.00
C 50.43 78.96 53.72 76.70 56.00 75.00
C 57.70 73.81 58.77 72.56 60.00 71.00
C 62.67 67.62 65.18 63.60 67.00 60.00
C 67.90 57.57 68.40 55.48 69.00 53.00
C 69.32 51.68 69.57 50.32 70.00 49.00
C 71.10 45.65 72.35 42.46 73.00 39.00
C 73.00 39.00 73.23 38.34 73.00 38.00
C 72.19 36.78 70.00 37.46 69.00 37.00
C 65.10 38.44 67.48 46.37 64.78 50.78 C 62.08 55.18 62.58 56.14 58.92 62.92 C 55.25 69.69 46.22 77.19 38.00 77.00 C 29.78 76.81 29.43 78.15 23.00 75.00 Z"/>
</g>
<g fill="None" fill-opacity="0.0" stroke="#586EBD" stroke-opacity="1.00" stroke-width="0.3"><path d="
M 89.00 50.00 
C 89.40 49.42 88.50 47.47 89.00 47.00
C 89.62 44.77 91.81 41.91 94.00 41.00
C 94.47 40.50 96.42 41.40 97.00 41.00
C 94.88 28.07 76.58 47.91 89.00 50.00 Z"/>
</g>
<g fill="None" fill-opacity="0.0" stroke="#99A9DA" stroke-opacity="0.70" stroke-width="0.3"><path d="
M 112.00 47.00 
C 112.28 46.77 112.91 46.35 113.00 46.00
C 113.12 45.53 112.97 44.50 113.00 44.00
C 113.17 41.31 112.49 39.05 112.00 37.00
C 112.32 40.05 111.07 44.10 112.00 47.00 Z"/>
</g>
<g fill="None" fill-opacity="0.0" stroke="#5A6EBD" stroke-opacity="1.00" stroke-width="0.3"><path d="
M 225.00 50.00 
C 224.82 49.93 224.96 48.50 225.00 48.00
C 225.21 45.62 226.73 43.03 229.00 42.00
C 229.41 41.81 230.00 42.00 230.00 42.00
C 230.27 40.53 232.00 41.11 233.00 41.00
C 232.41 34.56 225.48 37.56 222.92 39.92 C 220.37 42.29 220.71 51.47 225.00 50.00 Z"/>
</g>
<g fill="None" fill-opacity="0.0" stroke="#FAD888" stroke-opacity="0.78" stroke-width="0.3"><path d="
M 20.00 41.00 
C 19.57 43.26 16.49 42.78 16.00 45.00
C 18.00 44.70 19.08 46.59 20.00 48.00
C 20.48 47.91 21.00 48.00 21.00 48.00
C 21.25 47.96 22.87 47.13 23.00 47.00
C 23.48 46.53 25.06 43.99 25.00 43.00
C 24.14 41.94 22.98 39.98 22.00 39.00
C 21.92 39.27 20.26 40.72 20.00 41.00 Z"/>
</g>
<g fill="None" fill-opacity="0.0" stroke="#BFC4DF" stroke-opacity="0.38" stroke-width="0.3"><path d="
M 181.00 46.00 
C 180.26 45.46 178.83 41.03 178.00 40.00
C 178.56 42.40 179.55 44.19 181.00 46.00 Z"/>
</g>
<g fill="None" fill-opacity="0.0" stroke="#B9BFD7" stroke-opacity="0.42" stroke-width="0.3"><path d="
M 89.00 47.00 
C 89.27 46.75 90.00 47.00 90.00 47.00
C 91.16 44.82 91.89 43.37 94.00 42.00
C 94.23 41.85 94.00 41.00 94.00 41.00
C 91.81 41.91 89.62 44.77 89.00 47.00 Z"/>
</g>
<g fill="None" fill-opacity="0.0" stroke="#F4F6FA" stroke-opacity="0.13" stroke-width="0.3"><path d="
M 94.00 42.00 
C 98.66 43.14 91.71 52.10 90.00 47.00
C 90.00 47.00 89.27 46.75 89.00 47.00
C 88.50 47.47 89.40 49.42 89.00 50.00
C 93.84 50.82 97.74 45.51 97.00 41.00
C 96.42 41.40 94.47 40.50 94.00 41.00
C 94.00 41.00 94.23 41.85 94.00 42.00 Z"/>
</g>
<g fill="None" fill-opacity="0.0" stroke="#FBF6E8" stroke-opacity="0.18" stroke-width="0.3"><path d="
M 8.00 45.00 
C 10.78 47.42 10.23 43.59 11.00 42.00
C 10.40 43.06 9.70 45.34 8.00 45.00 Z"/>
</g>
<g fill="None" fill-opacity="0.0" stroke="#000000" stroke-opacity="0.00" stroke-width="0.3"><path d="
M 90.00 47.00 
C 91.71 52.10 98.66 43.14 94.00 42.00
C 91.89 43.37 91.16 44.82 90.00 47.00 Z"/>
</g>
<g fill="None" fill-opacity="0.0" stroke="#F7F9FD" stroke-opacity="0.11" stroke-width="0.3"><path d="
M 164.00 44.00 
C 163.74 45.69 163.64 48.53 161.00 48.00
C 160.77 48.26 160.26 48.79 160.00 49.00
C 164.69 48.94 165.75 46.87 165.00 42.00
C 164.85 42.72 164.41 43.40 164.00 44.00 Z"/>
</g>
<g fill="None" fill-opacity="0.0" stroke="#C4C8DE" stroke-opacity="0.35" stroke-width="0.3"><path d="
M 225.00 48.00 
C 225.34 47.77 226.00 48.00 226.00 48.00
C 226.44 45.82 227.51 43.71 229.00 42.00
C 226.73 43.03 225.21 45.62 225.00 48.00 Z"/>
</g>
<g fill="None" fill-opacity="0.0" stroke="#000000" stroke-opacity="0.00" stroke-width="0.3"><path d="
M 226.00 48.00 
C 228.01 49.47 233.84 44.93 233.00 43.00
C 232.36 41.80 231.30 41.84 230.00 42.00
C 230.00 42.00 229.41 41.81 229.00 42.00
C 227.51 43.71 226.44 45.82 226.00 48.00 Z"/>
</g>
<g fill="None" fill-opacity="0.0" stroke="#FAF8F2" stroke-opacity="0.18" stroke-width="0.3"><path d="
M 23.00 47.00 
C 23.38 47.01 24.69 48.61 25.00 49.00
C 26.40 50.77 24.89 49.57 26.00 50.00
C 29.75 47.90 26.30 44.60 25.00 43.00
C 25.06 43.99 23.48 46.53 23.00 47.00 Z"/>
</g>
<g fill="None" fill-opacity="0.0" stroke="#262728" stroke-opacity="0.04" stroke-width="0.3"><path d="
M 128.00 44.00 
C 127.62 44.54 127.40 45.41 127.00 46.00
C 125.19 47.32 129.84 47.02 130.00 45.00
C 129.89 43.42 129.36 42.70 128.00 44.00 Z"/>
</g>
<g fill="None" fill-opacity="0.0" stroke="#F6F8FC" stroke-opacity="0.09" stroke-width="0.3"><path d="
M 226.00 48.00 
C 226.00 48.00 225.34 47.77 225.00 48.00
C 224.96 48.50 224.82 49.93 225.00 50.00
C 227.59 51.08 234.54 45.91 233.00 43.00
C 233.84 44.93 228.01 49.47 226.00 48.00 Z"/>
</g>
<g fill="None" fill-opacity="0.0" stroke="#F9FAFD" stroke-opacity="0.08" stroke-width="0.3"><path d="
M 251.00 44.00 
C 250.40 44.30 254.72 43.91 255.00 44.00
C 256.45 44.47 257.10 46.07 258.00 47.00
C 256.37 45.00 254.87 40.54 251.00 44.00 Z"/>
</g>
<g fill="None" fill-opacity="0.0" stroke="#1D1E20" stroke-opacity="0.03" stroke-width="0.3"><path d="
M 161.00 48.00 
C 163.64 48.53 163.74 45.69 164.00 44.00
C 163.20 45.16 162.06 46.80 161.00 48.00 Z"/>
</g>
<g fill="None" fill-opacity="0.0" stroke="#D4DCEF" stroke-opacity="0.42" stroke-width="0.3"><path d="
M 256.00 48.00 
C 256.47 48.64 259.33 47.51 260.00 48.00
C 260.23 49.83 259.93 51.47 259.00 53.00
C 263.59 50.58 259.50 48.55 258.00 47.00
C 257.10 46.07 256.45 44.47 255.00 44.00
C 255.95 44.67 256.08 46.98 256.00 48.00 Z"/>
</g>
<g fill="None" fill-opacity="0.0" stroke="#F4F7FB" stroke-opacity="0.14" stroke-width="0.3"><path d="
M 127.00 46.00 
C 126.59 46.61 125.64 48.47 125.00 49.00
C 126.36 48.87 130.26 48.84 130.00 45.00
C 129.84 47.02 125.19 47.32 127.00 46.00 Z"/>
</g>
<g fill="None" fill-opacity="0.0" stroke="#DBDEC0" stroke-opacity="0.83" stroke-width="0.3"><path d="
M 21.00 48.00 
C 21.23 48.16 21.17 49.57 21.00 50.00
C 21.77 49.73 24.24 48.75 25.00 49.00
C 24.69 48.61 23.38 47.01 23.00 47.00
C 22.87 47.13 21.25 47.96 21.00 48.00 Z"/>
</g>
<g fill="None" fill-opacity="0.0" stroke="#E9ECE6" stroke-opacity="0.45" stroke-width="0.3"><path d="
M 18.00 49.00 
C 17.83 49.43 18.25 50.76 18.00 51.00
C 18.82 50.63 20.10 50.32 21.00 50.00
C 21.17 49.57 21.23 48.16 21.00 48.00
C 21.00 48.00 20.48 47.91 20.00 48.00
C 19.25 48.14 18.64 48.61 18.00 49.00 Z"/>
</g>
<g fill="None" fill-opacity="0.0" stroke="#576EC0" stroke-opacity="0.98" stroke-width="0.3"><path d="
M 221.00 69.00 
C 222.23 70.11 223.46 72.53 225.00 73.00
C 227.94 73.65 231.37 72.93 234.00 72.00
C 235.10 71.48 236.89 69.83 238.00 69.00
C 239.69 67.82 241.50 66.31 243.00 65.00
C 244.26 63.67 244.34 63.74 246.00 63.00
C 251.43 60.59 254.62 58.19 259.00 54.00
C 259.00 54.00 258.77 53.34 259.00 53.00
C 259.93 51.47 260.23 49.83 260.00 48.00
C 259.33 47.51 256.47 48.64 256.00 48.00
C 255.29 56.68 244.76 55.90 239.75 59.75 C 234.75 63.60 229.05 71.31 221.00 69.00 Z"/>
</g>
<g fill="None" fill-opacity="0.0" stroke="#F8FAFD" stroke-opacity="0.18" stroke-width="0.3"><path d="
M 14.00 55.00 
C 14.61 53.28 16.53 51.66 18.00 51.00
C 18.25 50.76 17.83 49.43 18.00 49.00
C 15.80 50.35 14.23 52.38 14.00 55.00 Z"/>
</g>
<g fill="None" fill-opacity="0.0" stroke="#E4EBF7" stroke-opacity="0.22" stroke-width="0.3"><path d="
M 69.00 53.00 
C 68.97 54.00 70.65 57.87 71.00 59.00
C 70.63 56.57 69.89 50.74 70.00 49.00
C 69.57 50.32 69.32 51.68 69.00 53.00 Z"/>
</g>
<g fill="None" fill-opacity="0.0" stroke="#5B73B9" stroke-opacity="1.00" stroke-width="0.3"><path d="
M 37.00 54.00 
C 38.69 55.69 40.21 58.66 43.00 59.00
C 47.67 59.50 52.59 54.35 53.00 50.00
C 48.73 54.05 42.74 56.66 37.00 54.00 Z"/>
</g>
<g fill="None" fill-opacity="0.0" stroke="#6176B3" stroke-opacity="1.00" stroke-width="0.3"><path d="
M 30.00 57.00 
C 29.75 56.77 30.00 56.00 30.00 56.00
C 30.00 56.00 29.98 55.50 30.00 55.00
C 28.36 54.02 29.07 50.82 26.00 52.00
C 26.92 53.88 27.80 56.17 30.00 57.00 Z"/>
</g>
<g fill="None" fill-opacity="0.0" stroke="#D1D5E5" stroke-opacity="0.28" stroke-width="0.3"><path d="
M 246.00 63.00 
C 251.51 61.32 256.68 60.43 259.00 54.00
C 254.62 58.19 251.43 60.59 246.00 63.00 Z"/>
</g>
<g fill="None" fill-opacity="0.0" stroke="#F7F9FE" stroke-opacity="0.17" stroke-width="0.3"><path d="
M 30.00 57.00 
C 32.08 58.94 35.22 59.89 38.00 60.00
C 35.47 58.76 32.85 57.07 30.00 56.00
C 30.00 56.00 29.75 56.77 30.00 57.00 Z"/>
</g>
<g fill="None" fill-opacity="0.0" stroke="#5970C0" stroke-opacity="0.96" stroke-width="0.3"><path d="
M 78.00 68.00 
C 79.10 68.98 80.77 71.40 82.00 72.00
C 85.04 73.14 88.61 73.42 92.00 73.00
C 93.38 72.72 95.17 71.25 97.00 71.00
C 97.00 71.00 97.56 71.16 98.00 71.00
C 99.74 69.18 104.38 63.61 107.00 63.00
C 108.21 62.72 109.75 63.06 111.00 63.00
C 114.31 61.45 113.21 59.23 113.00 56.00
C 100.48 57.19 92.03 74.34 78.00 68.00 Z"/>
</g>
<g fill="None" fill-opacity="0.0" stroke="#FDFFFF" stroke-opacity="0.05" stroke-width="0.3"><path d="
M 14.00 64.00 
C 13.74 61.74 14.00 59.28 14.00 57.00
C 12.83 59.76 13.33 61.28 14.00 64.00 Z"/>
</g>
<g fill="None" fill-opacity="0.0" stroke="#5E74C1" stroke-opacity="0.95" stroke-width="0.3"><path d="
M 200.00 87.00 
C 201.32 88.12 201.37 90.12 203.00 91.00
C 208.58 92.93 209.90 89.30 212.00 85.00
C 212.58 83.38 213.49 81.36 214.00 80.00
C 214.48 78.19 214.73 76.94 215.00 75.00
C 215.42 71.98 216.88 68.93 217.00 66.00
C 214.89 63.80 217.22 59.83 215.00 58.00
C 209.54 63.38 212.66 88.81 200.00 87.00 Z"/>
</g>
<g fill="None" fill-opacity="0.0" stroke="#5E74C1" stroke-opacity="0.94" stroke-width="0.3"><path d="
M 121.00 68.00 
C 121.69 68.67 122.29 70.50 123.00 71.00
C 123.90 71.63 128.24 72.88 129.00 73.00
C 136.07 73.64 141.42 71.83 147.00 68.00
C 149.94 65.40 150.16 62.53 149.00 59.00
C 141.32 64.18 131.40 73.03 121.00 68.00 Z"/>
</g>
<g fill="None" fill-opacity="0.0" stroke="#5C73C1" stroke-opacity="0.96" stroke-width="0.3"><path d="
M 160.00 72.00 
C 160.00 72.00 160.50 72.00 161.00 72.00
C 165.21 72.00 169.84 72.56 174.00 72.00
C 177.02 71.22 179.73 70.40 182.00 68.00
C 182.66 67.30 183.74 65.91 184.00 65.00
C 183.61 63.13 184.87 60.14 183.00 59.00
C 176.09 66.32 166.07 71.46 156.00 68.00
C 156.74 69.63 158.65 71.14 160.00 72.00 Z"/>
</g>
<g fill="None" fill-opacity="0.0" stroke="#CCD1E3" stroke-opacity="0.28" stroke-width="0.3"><path d="
M 60.00 71.00 
C 60.16 70.77 61.00 71.00 61.00 71.00
C 63.76 67.50 65.49 64.08 67.00 60.00
C 65.18 63.60 62.67 67.62 60.00 71.00 Z"/>
</g>
<g fill="None" fill-opacity="0.0" stroke="#E4E6F0" stroke-opacity="0.16" stroke-width="0.3"><path d="
M 98.00 71.00 
C 101.68 69.67 103.91 64.05 107.00 63.00
C 104.38 63.61 99.74 69.18 98.00 71.00 Z"/>
</g>
<g fill="None" fill-opacity="0.0" stroke="#EFF0F6" stroke-opacity="0.11" stroke-width="0.3"><path d="
M 82.00 72.00 
C 80.77 71.40 79.10 68.98 78.00 68.00
C 76.62 66.77 74.17 65.49 73.00 64.00
C 75.07 67.10 78.45 70.67 82.00 72.00 Z"/>
</g>
<g fill="None" fill-opacity="0.0" stroke="#FFFFFF" stroke-opacity="0.02" stroke-width="0.3"><path d="
M 121.00 70.00 
C 120.18 69.30 119.69 67.74 119.00 67.00
C 118.06 65.99 116.22 64.81 115.00 64.00
C 117.09 65.69 118.49 68.47 121.00 70.00 Z"/>
</g>
<g fill="None" fill-opacity="0.0" stroke="#EBEEF5" stroke-opacity="0.14" stroke-width="0.3"><path d="
M 182.00 68.00 
C 183.29 67.83 183.75 66.30 185.00 66.00
C 187.10 68.55 189.59 72.34 193.00 73.00
C 191.47 72.02 190.32 70.24 189.00 69.00
C 187.90 67.97 184.66 66.37 184.00 65.00
C 183.74 65.91 182.66 67.30 182.00 68.00 Z"/>
</g>
<g fill="None" fill-opacity="0.0" stroke="#F2F2F8" stroke-opacity="0.10" stroke-width="0.3"><path d="
M 238.00 69.00 
C 237.77 69.16 238.00 70.00 238.00 70.00
C 240.01 68.58 241.32 66.78 243.00 65.00
C 241.50 66.31 239.69 67.82 238.00 69.00 Z"/>
</g>
<g fill="None" fill-opacity="0.0" stroke="#D7DAE9" stroke-opacity="0.25" stroke-width="0.3"><path d="
M 215.00 75.00 
C 216.54 73.37 216.60 70.30 217.00 68.00
C 220.38 68.49 221.67 72.26 225.00 73.00
C 223.46 72.53 222.23 70.11 221.00 69.00
C 220.06 68.15 217.67 67.11 217.00 66.00
C 216.88 68.93 215.42 71.98 215.00 75.00 Z"/>
</g>
<g fill="None" fill-opacity="0.0" stroke="#99A7CC" stroke-opacity="0.76" stroke-width="0.3"><path d="
M 121.00 70.00 
C 121.62 70.38 122.39 70.53 123.00 71.00
C 122.29 70.50 121.69 68.67 121.00 68.00
C 119.99 67.02 120.26 67.58 119.00 67.00
C 119.69 67.74 120.18 69.30 121.00 70.00 Z"/>
</g>
<g fill="None" fill-opacity="0.0" stroke="#5B72BD" stroke-opacity="0.99" stroke-width="0.3"><path d="
M 189.00 69.00 
C 190.32 70.24 191.47 72.02 193.00 73.00
C 193.00 73.00 193.50 73.00 194.00 73.00
C 194.63 73.00 196.46 73.30 197.00 73.00
C 197.91 71.06 198.61 69.07 199.00 67.00
C 195.71 67.75 192.73 69.99 189.00 69.00 Z"/>
</g>
<g fill="None" fill-opacity="0.0" stroke="#C6C9DE" stroke-opacity="0.33" stroke-width="0.3"><path d="
M 234.00 72.00 
C 235.35 71.53 237.00 71.29 238.00 70.00
C 238.00 70.00 237.77 69.16 238.00 69.00
C 236.89 69.83 235.10 71.48 234.00 72.00 Z"/>
</g>
<g fill="None" fill-opacity="0.0" stroke="#FFFFFF" stroke-opacity="0.02" stroke-width="0.3"><path d="
M 56.00 75.00 
C 55.77 75.16 56.00 76.00 56.00 76.00
C 57.96 74.54 59.46 72.95 61.00 71.00
C 61.00 71.00 60.16 70.77 60.00 71.00
C 58.77 72.56 57.70 73.81 56.00 75.00 Z"/>
</g>
<g fill="None" fill-opacity="0.0" stroke="#C7CCE1" stroke-opacity="0.33" stroke-width="0.3"><path d="
M 92.00 73.00 
C 94.11 72.74 95.65 72.66 97.00 71.00
C 95.17 71.25 93.38 72.72 92.00 73.00 Z"/>
</g>
<g fill="None" fill-opacity="0.0" stroke="#C8D1E3" stroke-opacity="0.29" stroke-width="0.3"><path d="
M 129.00 73.00 
C 128.24 72.88 123.90 71.63 123.00 71.00
C 125.12 72.61 126.14 72.74 129.00 73.00 Z"/>
</g>
<g fill="None" fill-opacity="0.0" stroke="#9DA9D1" stroke-opacity="0.56" stroke-width="0.3"><path d="
M 174.00 72.00 
C 169.84 72.56 165.21 72.00 161.00 72.00
C 164.16 74.34 170.69 72.86 174.00 72.00 Z"/>
</g>
<g fill="None" fill-opacity="0.0" stroke="#FCFDFF" stroke-opacity="0.07" stroke-width="0.3"><path d="
M 195.00 78.00 
C 195.16 76.94 196.51 74.42 197.00 73.00
C 196.46 73.30 194.63 73.00 194.00 73.00
C 195.34 74.11 194.84 76.51 195.00 78.00 Z"/>
</g>
<g fill="None" fill-opacity="0.0" stroke="#FBE1A4" stroke-opacity="0.63" stroke-width="0.3"><path d="
M 252.00 81.00 
C 252.04 79.29 250.75 78.38 250.00 77.00
C 250.18 75.35 249.83 73.49 248.00 73.00
C 246.75 75.67 245.56 78.55 243.00 80.00
C 245.66 81.99 246.81 84.74 249.00 87.00
C 248.55 84.34 251.13 82.73 252.00 81.00 Z"/>
</g>
<g fill="None" fill-opacity="0.0" stroke="#C6CDE3" stroke-opacity="0.38" stroke-width="0.3"><path d="
M 32.00 81.00 
C 28.68 79.26 25.92 77.71 23.00 75.00
C 22.31 74.66 21.68 74.41 21.00 74.00
C 23.93 77.10 26.63 80.89 32.00 81.00 Z"/>
</g>
<g fill="None" fill-opacity="0.0" stroke="#D1D5E5" stroke-opacity="0.27" stroke-width="0.3"><path d="
M 48.00 80.00 
C 50.85 79.12 53.66 78.05 56.00 76.00
C 56.00 76.00 55.77 75.16 56.00 75.00
C 53.72 76.70 50.43 78.96 48.00 80.00 Z"/>
</g>
<g fill="None" fill-opacity="0.0" stroke="#FCF8E7" stroke-opacity="0.17" stroke-width="0.3"><path d="
M 252.00 81.00 
C 253.19 81.15 254.51 80.41 254.00 79.00
C 252.63 79.01 250.90 78.04 250.00 77.00
C 250.75 78.38 252.04 79.29 252.00 81.00 Z"/>
</g>
<g fill="None" fill-opacity="0.0" stroke="#FBDC91" stroke-opacity="0.74" stroke-width="0.3"><path d="
M 269.00 87.00 
C 261.57 89.43 264.80 78.27 259.00 79.00
C 259.41 83.38 257.15 88.65 252.00 88.00
C 256.34 90.20 258.48 97.18 262.00 100.00
C 261.17 96.56 263.42 94.01 264.00 91.00
C 266.14 90.39 269.99 90.27 269.00 87.00 Z"/>
</g>
<g fill="None" fill-opacity="0.0" stroke="#CCD0E3" stroke-opacity="0.31" stroke-width="0.3"><path d="
M 212.00 85.00 
C 212.86 83.23 213.43 82.15 214.00 80.00
C 213.49 81.36 212.58 83.38 212.00 85.00 Z"/>
</g>
<g fill="None" fill-opacity="0.0" stroke="#D4D7E7" stroke-opacity="0.25" stroke-width="0.3"><path d="
M 43.00 81.00 
C 39.71 81.24 36.30 81.00 33.00 81.00
C 35.92 83.16 40.07 81.55 43.00 81.00 Z"/>
</g>
<g fill="None" fill-opacity="0.0" stroke="#E5E8F3" stroke-opacity="0.21" stroke-width="0.3"><path d="
M 203.00 91.00 
C 201.37 90.12 201.32 88.12 200.00 87.00
C 198.95 86.11 196.87 86.08 196.00 85.00
C 197.28 87.56 200.61 90.17 203.00 91.00 Z"/>
</g>
<g fill="None" fill-opacity="0.0" stroke="#FCEFCF" stroke-opacity="0.39" stroke-width="0.3"><path d="
M 248.00 95.00 
C 250.24 93.07 248.66 93.64 251.00 95.00
C 251.29 93.32 249.69 91.68 248.00 92.00
C 247.60 92.55 248.50 94.57 248.00 95.00 Z"/>
</g>
<g fill="None" fill-opacity="0.0" stroke="#FADF93" stroke-opacity="0.69" stroke-width="0.3"><path d="
M 248.00 95.00 
C 246.51 96.29 245.57 98.07 246.00 100.00
C 246.76 101.49 248.52 103.07 249.00 105.00
L 250.00 105.00
C 249.49 100.66 254.03 99.99 255.00 97.00
C 253.31 97.21 252.03 95.88 251.00 95.00
C 248.66 93.64 250.24 93.07 248.00 95.00 Z"/>
</g>
<g fill="None" fill-opacity="0.0" stroke="#FCF9EF" stroke-opacity="0.14" stroke-width="0.3"><path d="
M 246.00 100.00 
C 245.57 98.07 246.51 96.29 248.00 95.00
C 246.47 95.25 245.82 97.55 244.00 97.00
C 243.11 98.77 245.55 99.12 246.00 100.00 Z"/>
</g>
<g fill="#000000" fill-opacity="0.00" stroke="None">
<path d="
M 0.00 35.00 
C 0.99 34.91 2.01 35.11 3.00 35.00
C 4.18 34.66 6.47 32.02 7.00 31.00
C 7.72 29.28 7.57 26.87 8.00 25.00
C 11.76 27.57 12.64 34.34 18.00 36.00
C 14.66 36.35 10.97 38.03 11.00 42.00
C 10.23 43.59 10.78 47.42 8.00 45.00
C 5.87 43.14 5.95 34.80 0.00 36.00
L 0.00 105.00
L 249.00 105.00
C 248.52 103.07 246.76 101.49 246.00 100.00
C 245.55 99.12 243.11 98.77 244.00 97.00
C 245.82 97.55 246.47 95.25 248.00 95.00
C 248.50 94.57 247.60 92.55 248.00 92.00
C 249.69 91.68 251.29 93.32 251.00 95.00
C 252.03 95.88 253.31 97.21 255.00 97.00
C 254.03 99.99 249.49 100.66 250.00 105.00
L 274.00 105.00
L 274.00 0.00
L 0.00 0.00
L 0.00 35.00
M 77.00 8.00 
C 78.84 9.84 80.46 10.25 81.00 13.00
C 81.09 13.48 81.00 14.00 81.00 14.00
C 82.53 16.07 82.50 19.97 81.00 22.00
C 81.00 22.50 81.00 23.00 81.00 23.00
C 80.48 25.65 77.46 28.76 75.00 30.00
C 73.52 30.75 72.70 30.88 71.00 31.00
C 70.10 31.35 67.80 34.36 69.00 34.00
C 70.13 34.53 72.25 36.90 73.00 38.00
C 73.23 38.34 73.00 39.00 73.00 39.00
C 74.65 37.56 75.61 34.86 77.00 33.00
C 78.70 30.71 80.66 28.56 83.00 27.00
C 88.74 23.18 96.76 21.18 103.00 25.00
C 105.71 26.66 109.58 30.18 111.00 33.00
C 111.75 34.49 111.82 35.31 112.00 37.00
C 112.49 39.05 113.17 41.31 113.00 44.00
C 113.83 40.28 118.56 37.97 121.00 35.00
C 123.43 30.82 126.27 26.67 130.25 23.25 C 134.22 19.83 143.76 19.50 145.00 26.00
C 150.09 26.16 148.77 31.69 147.00 34.00
C 143.32 38.81 143.54 37.78 145.00 44.00
C 145.11 44.47 145.00 45.00 145.00 45.00
C 149.04 47.93 155.49 33.29 159.00 31.00
C 159.16 30.56 159.00 30.00 159.00 30.00
C 160.27 27.41 164.44 23.18 167.00 22.00
C 170.15 20.54 173.86 20.55 177.00 22.00
C 179.65 23.22 183.56 27.25 184.00 30.00
C 184.08 30.49 184.11 31.53 184.00 32.00
C 183.22 35.37 178.46 35.24 178.00 39.00
C 177.94 39.49 178.00 40.00 178.00 40.00
C 178.83 41.03 180.26 45.46 181.00 46.00
C 183.23 47.15 189.18 30.93 192.00 28.00
C 193.42 25.77 194.05 25.61 196.00 24.00
C 197.43 22.82 199.30 23.27 198.00 21.00
C 195.90 19.65 194.90 18.29 194.00 16.00
C 193.01 13.47 193.13 12.47 194.00 10.00
C 194.69 6.36 196.95 5.87 200.00 5.00
C 202.30 4.34 202.74 4.36 205.00 5.00
C 208.14 5.37 207.90 6.19 210.00 8.00
C 211.72 9.48 214.09 10.82 215.00 13.00
C 215.31 13.90 215.31 17.10 215.00 18.00
C 214.72 20.63 211.62 23.72 209.00 24.00
C 206.93 24.28 204.07 24.28 202.00 24.00
C 202.01 24.92 202.39 26.28 203.00 27.00
C 208.79 29.15 205.56 39.72 203.00 44.00
C 204.10 47.67 211.51 31.76 213.00 29.00
C 216.40 22.70 216.77 23.05 223.00 25.00
C 225.45 25.77 225.56 25.67 228.00 25.00
C 233.18 23.58 236.75 21.95 242.00 25.00
C 244.30 26.34 246.65 28.79 248.00 31.00
C 248.34 31.57 248.63 32.52 249.00 33.00
C 250.58 35.08 250.83 36.16 251.00 39.00
C 251.09 40.49 251.30 42.54 251.00 44.00
C 254.87 40.54 256.37 45.00 258.00 47.00
C 259.50 48.55 263.59 50.58 259.00 53.00
C 258.77 53.34 259.00 54.00 259.00 54.00
C 256.68 60.43 251.51 61.32 246.00 63.00
C 244.34 63.74 244.26 63.67 243.00 65.00
C 241.32 66.78 240.01 68.58 238.00 70.00
C 237.00 71.29 235.35 71.53 234.00 72.00
C 231.37 72.93 227.94 73.65 225.00 73.00
C 221.67 72.26 220.38 68.49 217.00 68.00
C 216.60 70.30 216.54 73.37 215.00 75.00
C 214.73 76.94 214.48 78.19 214.00 80.00
C 213.43 82.15 212.86 83.23 212.00 85.00
C 209.90 89.30 208.58 92.93 203.00 91.00
C 200.61 90.17 197.28 87.56 196.00 85.00
C 194.80 82.61 195.28 80.63 195.00 78.00
C 194.84 76.51 195.34 74.11 194.00 73.00
C 193.50 73.00 193.00 73.00 193.00 73.00
C 189.59 72.34 187.10 68.55 185.00 66.00
C 183.75 66.30 183.29 67.83 182.00 68.00
C 179.73 70.40 177.02 71.22 174.00 72.00
C 170.69 72.86 164.16 74.34 161.00 72.00
C 160.50 72.00 160.00 72.00 160.00 72.00
C 156.59 71.34 154.10 67.55 152.00 65.00
C 149.69 64.55 148.93 67.53 147.00 68.00
C 141.42 71.83 136.07 73.64 129.00 73.00
C 126.14 72.74 125.12 72.61 123.00 71.00
C 122.39 70.53 121.62 70.38 121.00 70.00
C 118.49 68.47 117.09 65.69 115.00 64.00
C 112.69 62.47 114.12 62.85 111.00 63.00
C 109.75 63.06 108.21 62.72 107.00 63.00
C 103.91 64.05 101.68 69.67 98.00 71.00
C 97.56 71.16 97.00 71.00 97.00 71.00
C 95.65 72.66 94.11 72.74 92.00 73.00
C 88.61 73.42 85.04 73.14 82.00 72.00
C 78.45 70.67 75.07 67.10 73.00 64.00
C 71.69 62.04 71.67 61.16 71.00 59.00
C 70.65 57.87 68.97 54.00 69.00 53.00
C 68.40 55.48 67.90 57.57 67.00 60.00
C 65.49 64.08 63.76 67.50 61.00 71.00
C 59.46 72.95 57.96 74.54 56.00 76.00
C 53.66 78.05 50.85 79.12 48.00 80.00
C 46.17 80.57 45.03 80.85 43.00 81.00
C 40.07 81.55 35.92 83.16 33.00 81.00
C 32.50 81.00 32.00 81.00 32.00 81.00
C 26.63 80.89 23.93 77.10 21.00 74.00
C 16.86 71.48 15.07 68.33 14.00 64.00
C 13.33 61.28 12.83 59.76 14.00 57.00
C 14.00 56.50 13.96 55.50 14.00 55.00
C 14.23 52.38 15.80 50.35 18.00 49.00
C 18.64 48.61 19.25 48.14 20.00 48.00
C 19.08 46.59 18.00 44.70 16.00 45.00
C 16.49 42.78 19.57 43.26 20.00 41.00
C 19.64 41.47 23.39 34.18 22.00 39.00
C 22.98 39.98 24.14 41.94 25.00 43.00
C 26.30 44.60 29.75 47.90 26.00 50.00
C 28.58 51.01 30.15 51.96 30.00 55.00
C 29.98 55.50 30.00 56.00 30.00 56.00
C 32.85 57.07 35.47 58.76 38.00 60.00
C 38.50 60.02 39.50 60.00 40.00 60.00
C 41.22 56.00 32.78 53.43 31.25 49.75 C 29.72 46.08 25.93 38.15 29.00 34.00
C 29.05 33.50 29.00 33.00 29.00 33.00
C 28.72 28.85 30.21 25.54 32.00 22.00
C 33.65 18.75 35.74 15.86 38.00 13.00
C 39.54 11.05 41.04 9.46 43.00 8.00
C 47.87 4.38 52.87 1.46 59.00 1.00
C 61.20 0.83 63.81 0.75 66.00 1.00
C 70.16 1.48 75.00 3.92 77.00 8.00
M 22.00 22.00 
C 23.15 23.15 23.82 25.51 26.00 25.00
C 26.62 28.03 21.37 26.89 22.00 30.00
C 20.84 31.18 19.66 34.84 19.00 30.00
C 18.93 29.51 19.00 29.00 19.00 29.00
C 17.60 28.43 16.41 27.55 15.00 27.00
C 15.60 25.18 17.56 24.85 19.00 24.00
C 19.24 23.67 18.94 22.49 19.00 22.00
C 19.62 17.14 20.84 20.84 22.00 22.00
M 250.00 77.00 
C 250.90 78.04 252.63 79.01 254.00 79.00
C 254.51 80.41 253.19 81.15 252.00 81.00
C 251.13 82.73 248.55 84.34 249.00 87.00
C 246.81 84.74 245.66 81.99 243.00 80.00
C 245.56 78.55 246.75 75.67 248.00 73.00
C 249.83 73.49 250.18 75.35 250.00 77.00
M 269.00 87.00 
C 269.99 90.27 266.14 90.39 264.00 91.00
C 263.42 94.01 261.17 96.56 262.00 100.00
C 258.48 97.18 256.34 90.20 252.00 88.00
C 257.15 88.65 259.41 83.38 259.00 79.00
C 264.80 78.27 261.57 89.43 269.00 87.00 Z"/>
</g>
<g fill="#C6E2F9" fill-opacity="0.97" stroke="None">
<path d="
M 43.00 8.00 
C 41.50 9.31 39.32 11.57 38.00 13.00
C 35.74 15.86 33.65 18.75 32.00 22.00
C 31.12 24.47 30.67 29.95 29.00 33.00
C 29.00 33.00 29.05 33.50 29.00 34.00
C 28.19 42.52 31.37 48.37 37.00 54.00
C 42.74 56.66 48.73 54.05 53.00 50.00
C 52.59 54.35 47.67 59.50 43.00 59.00
C 42.08 59.27 41.48 59.99 40.00 60.00
C 39.50 60.00 38.50 60.02 38.00 60.00
C 35.22 59.89 32.08 58.94 30.00 57.00
C 27.80 56.17 26.92 53.88 26.00 52.00
C 29.07 50.82 28.36 54.02 30.00 55.00
C 30.15 51.96 28.58 51.01 26.00 50.00
C 24.89 49.57 26.40 50.77 25.00 49.00
C 24.24 48.75 21.77 49.73 21.00 50.00
C 20.10 50.32 18.82 50.63 18.00 51.00
C 16.53 51.66 14.61 53.28 14.00 55.00
C 13.96 55.50 14.00 56.50 14.00 57.00
C 14.00 59.28 13.74 61.74 14.00 64.00
C 15.07 68.33 16.86 71.48 21.00 74.00
C 21.68 74.41 22.31 74.66 23.00 75.00
C 29.43 78.15 29.78 76.81 38.00 77.00 C 46.22 77.19 55.25 69.69 58.92 62.92 C 62.58 56.14 62.08 55.18 64.78 50.78 C 67.48 46.37 65.10 38.44 69.00 37.00
C 66.69 35.95 67.45 34.00 64.00 34.00
C 62.99 34.30 62.18 33.97 62.00 34.00
C 59.02 35.67 51.52 38.95 50.00 34.00
C 50.11 34.05 43.85 32.30 46.00 27.00 C 48.15 21.70 46.90 20.99 52.08 18.08 C 57.26 15.18 59.33 17.49 60.00 21.00
C 60.38 22.97 61.40 24.79 61.00 27.00
C 62.54 26.63 63.40 28.43 65.00 28.00
C 67.66 25.07 72.00 26.63 74.75 22.75 C 77.50 18.87 77.00 13.89 77.00 9.00
C 77.00 8.50 77.00 8.00 77.00 8.00
C 75.00 3.92 70.16 1.48 66.00 1.00
C 64.75 0.97 60.25 1.02 59.00 1.00
C 52.87 1.46 47.87 4.38 43.00 8.00 Z"/>
</g>
<g fill="#DAE8F3" fill-opacity="0.73" stroke="None">
<path d="
M 66.00 1.00 
C 63.81 0.75 61.20 0.83 59.00 1.00
C 60.25 1.02 64.75 0.97 66.00 1.00 Z"/>
</g>
<g fill="#FFFFFF" fill-opacity="0.01" stroke="None">
<path d="
M 200.00 5.00 
C 201.52 4.82 203.48 4.82 205.00 5.00
C 202.74 4.36 202.30 4.34 200.00 5.00 Z"/>
</g>
<g fill="#C7E1F8" fill-opacity="0.94" stroke="None">
<path d="
M 194.00 10.00 
C 193.70 11.56 193.68 14.44 194.00 16.00
C 194.90 18.29 195.90 19.65 198.00 21.00
C 198.35 21.23 199.00 21.00 199.00 21.00
C 203.85 18.71 213.03 19.01 211.00 10.00
C 210.14 9.12 210.47 9.19 210.00 8.00
C 207.90 6.19 208.14 5.37 205.00 5.00
C 203.48 4.82 201.52 4.82 200.00 5.00
C 196.95 5.87 194.69 6.36 194.00 10.00 Z"/>
</g>
<g fill="#FFFFFF" fill-opacity="0.03" stroke="None">
<path d="
M 38.00 13.00 
C 39.32 11.57 41.50 9.31 43.00 8.00
C 41.04 9.46 39.54 11.05 38.00 13.00 Z"/>
</g>
<g fill="#CED4E4" fill-opacity="0.34" stroke="None">
<path d="
M 77.00 9.00 
C 78.63 10.06 80.07 11.54 81.00 13.00
C 80.46 10.25 78.84 9.84 77.00 8.00
C 77.00 8.00 77.00 8.50 77.00 9.00 Z"/>
</g>
<g fill="#D3D8E8" fill-opacity="0.35" stroke="None">
<path d="
M 211.00 10.00 
C 212.05 11.07 213.09 11.78 214.00 13.00
C 214.18 13.24 215.00 13.00 215.00 13.00
C 214.09 10.82 211.72 9.48 210.00 8.00
C 210.47 9.19 210.14 9.12 211.00 10.00 Z"/>
</g>
<g fill="#5A6FBF" fill-opacity="0.98" stroke="None">
<path d="
M 65.00 28.00 
C 65.19 28.09 64.87 29.54 65.00 30.00
C 65.91 31.48 69.58 31.10 71.00 31.00
C 72.70 30.88 73.52 30.75 75.00 30.00
C 76.86 28.85 79.94 24.66 81.00 23.00
C 81.00 23.00 81.00 22.50 81.00 22.00
C 81.00 19.33 81.00 16.67 81.00 14.00
C 81.00 14.00 81.09 13.48 81.00 13.00
C 80.07 11.54 78.63 10.06 77.00 9.00
C 77.00 13.89 77.50 18.87 74.75 22.75 C 72.00 26.63 67.66 25.07 65.00 28.00 Z"/>
</g>
<g fill="#FCFCFE" fill-opacity="0.08" stroke="None">
<path d="
M 194.00 16.00 
C 193.68 14.44 193.70 11.56 194.00 10.00
C 193.13 12.47 193.01 13.47 194.00 16.00 Z"/>
</g>
<g fill="#566BBE" fill-opacity="0.99" stroke="None">
<path d="
M 199.00 21.00 
C 199.97 22.62 200.28 22.50 202.00 23.00
C 204.07 22.72 206.93 22.72 209.00 23.00
C 211.85 22.07 213.07 20.84 214.00 18.00
C 213.69 17.10 213.69 13.90 214.00 13.00
C 213.09 11.78 212.05 11.07 211.00 10.00
C 213.03 19.01 203.85 18.71 199.00 21.00 Z"/>
</g>
<g fill="#929BCA" fill-opacity="0.66" stroke="None">
<path d="
M 214.00 18.00 
C 214.05 17.85 215.00 18.00 215.00 18.00
C 215.31 17.10 215.31 13.90 215.00 13.00
C 215.00 13.00 214.18 13.24 214.00 13.00
C 213.69 13.90 213.69 17.10 214.00 18.00 Z"/>
</g>
<g fill="#CFD2E1" fill-opacity="0.30" stroke="None">
<path d="
M 81.00 22.00 
C 82.50 19.97 82.53 16.07 81.00 14.00
C 81.00 16.67 81.00 19.33 81.00 22.00 Z"/>
</g>
<g fill="#5B72BF" fill-opacity="0.97" stroke="None">
<path d="
M 50.00 34.00 
C 49.77 33.25 49.96 31.79 50.00 31.00
C 50.18 27.57 52.56 23.40 56.00 22.00
C 57.28 21.48 58.80 22.10 60.00 21.00
C 59.33 17.49 57.26 15.18 52.08 18.08 C 46.90 20.99 48.15 21.70 46.00 27.00 C 43.85 32.30 50.11 34.05 50.00 34.00 Z"/>
</g>
<g fill="#CACFE3" fill-opacity="0.31" stroke="None">
<path d="
M 209.00 23.00 
C 208.85 23.05 209.00 24.00 209.00 24.00
C 211.62 23.72 214.72 20.63 215.00 18.00
C 215.00 18.00 214.05 17.85 214.00 18.00
C 213.07 20.84 211.85 22.07 209.00 23.00 Z"/>
</g>
<g fill="#FDF7F0" fill-opacity="0.13" stroke="None">
<path d="
M 19.00 22.00 
C 19.91 19.38 20.70 21.08 22.00 22.00
C 20.84 20.84 19.62 17.14 19.00 22.00 Z"/>
</g>
<g fill="#FADA8C" fill-opacity="0.72" stroke="None">
<path d="
M 19.00 22.00 
C 18.94 22.49 19.24 23.67 19.00 24.00
C 18.24 25.07 17.67 26.39 16.00 26.00
C 16.56 27.27 18.85 27.25 19.00 29.00
C 19.00 29.00 18.93 29.51 19.00 30.00
C 20.18 32.48 20.52 31.08 22.00 30.00
C 21.37 26.89 26.62 28.03 26.00 25.00
C 23.82 25.51 23.15 23.15 22.00 22.00
C 20.70 21.08 19.91 19.38 19.00 22.00 Z"/>
</g>
<g fill="#000000" fill-opacity="0.00" stroke="None">
<path d="
M 56.00 22.00 
C 53.71 23.16 50.45 29.02 50.00 31.00
C 49.96 31.79 49.77 33.25 50.00 34.00
C 51.52 38.95 59.02 35.67 62.00 34.00
C 64.28 32.72 65.67 32.31 65.00 30.00
C 64.87 29.54 65.19 28.09 65.00 28.00
C 63.40 28.43 62.54 26.63 61.00 27.00
C 61.40 24.79 60.38 22.97 60.00 21.00
C 58.80 22.10 57.28 21.48 56.00 22.00 Z"/>
</g>
<g fill="#C6E1F9" fill-opacity="0.97" stroke="None">
<path d="
M 121.00 35.00 
C 118.73 38.91 116.65 43.25 113.00 46.00
C 112.91 46.35 112.28 46.77 112.00 47.00
C 110.90 47.88 109.70 48.29 108.00 48.00
C 109.00 42.06 109.84 35.58 107.00 30.00
C 105.65 28.70 104.44 26.04 103.00 25.00
C 96.76 21.18 88.74 23.18 83.00 27.00
C 81.27 28.35 78.42 31.37 77.00 33.00
C 75.61 34.86 74.65 37.56 73.00 39.00
C 72.35 42.46 71.10 45.65 70.00 49.00
C 69.89 50.74 70.63 56.57 71.00 59.00
C 71.67 61.16 71.69 62.04 73.00 64.00
C 74.17 65.49 76.62 66.77 78.00 68.00
C 92.03 74.34 100.48 57.19 113.00 56.00
C 113.21 59.23 114.31 61.45 111.00 63.00
C 114.12 62.85 112.69 62.47 115.00 64.00
C 116.22 64.81 118.06 65.99 119.00 67.00
C 120.26 67.58 119.99 67.02 121.00 68.00
C 131.40 73.03 141.32 64.18 149.00 59.00
C 150.16 62.53 149.94 65.40 147.00 68.00
C 148.93 67.53 149.69 64.55 152.00 65.00
C 154.10 67.55 156.59 71.34 160.00 72.00
C 158.65 71.14 156.74 69.63 156.00 68.00
C 166.07 71.46 176.09 66.32 183.00 59.00
C 184.87 60.14 183.61 63.13 184.00 65.00
C 184.66 66.37 187.90 67.97 189.00 69.00
C 192.73 69.99 195.71 67.75 199.00 67.00
C 198.61 69.07 197.91 71.06 197.00 73.00
C 196.51 74.42 195.16 76.94 195.00 78.00
C 195.28 80.63 194.80 82.61 196.00 85.00
C 196.87 86.08 198.95 86.11 200.00 87.00
C 212.66 88.81 209.54 63.38 215.00 58.00
C 217.22 59.83 214.89 63.80 217.00 66.00
C 217.67 67.11 220.06 68.15 221.00 69.00
C 229.05 71.31 234.75 63.60 239.75 59.75 C 244.76 55.90 255.29 56.68 256.00 48.00
C 256.08 46.98 255.95 44.67 255.00 44.00
C 254.72 43.91 250.40 44.30 251.00 44.00
C 250.51 46.39 248.04 48.98 245.00 48.00
C 247.51 42.77 247.39 36.56 246.00 31.00
C 245.15 30.13 245.52 30.13 245.00 29.00
C 243.95 28.02 243.09 25.79 242.00 25.00
C 236.75 21.95 233.18 23.58 228.00 25.00
C 224.21 26.71 226.12 26.54 223.00 25.00
C 216.77 23.05 216.40 22.70 213.00 29.00
C 211.15 34.01 209.34 48.40 202.00 48.00
C 192.15 47.46 202.77 32.87 202.00 28.00
C 202.03 28.19 201.06 26.15 201.00 26.00
C 199.53 24.54 199.29 23.40 196.00 24.00
C 194.05 25.61 193.42 25.77 192.00 28.00
C 190.33 30.61 187.79 36.47 187.07 39.07 C 186.36 41.68 184.33 49.72 181.00 47.00
C 180.67 48.16 180.86 49.34 179.00 49.00
C 176.84 40.61 169.93 31.56 181.00 27.00
C 179.91 25.79 178.31 22.72 177.00 22.00
C 173.86 20.55 170.15 20.54 167.00 22.00
C 164.23 23.53 161.76 28.07 159.00 30.00
C 159.00 30.00 159.16 30.56 159.00 31.00
C 157.02 36.50 151.37 44.78 146.00 47.00
C 145.94 47.03 145.64 50.24 144.00 49.00
C 141.52 40.61 134.06 32.59 145.00 27.00
C 145.20 26.60 145.00 26.00 145.00 26.00
C 143.76 19.50 134.22 19.83 130.25 23.25 C 126.27 26.67 123.43 30.82 121.00 35.00
M 128.00 44.00 
C 129.36 42.70 129.89 43.42 130.00 45.00
C 130.26 48.84 126.36 48.87 125.00 49.00
C 115.08 49.98 125.54 40.20 128.00 36.00
C 130.08 38.15 130.54 41.77 128.00 44.00
M 165.00 42.00 
C 165.75 46.87 164.69 48.94 160.00 49.00
C 157.92 50.66 155.91 49.16 155.00 47.00
C 157.90 43.69 160.07 39.47 163.00 36.00
C 164.80 37.25 165.21 39.80 165.00 42.00
M 97.00 41.00 
C 97.74 45.51 93.84 50.82 89.00 50.00
C 76.58 47.91 94.88 28.07 97.00 41.00
M 230.00 42.00 
C 231.30 41.84 232.36 41.80 233.00 43.00
C 234.54 45.91 227.59 51.08 225.00 50.00
C 220.71 51.47 220.37 42.29 222.92 39.92 C 225.48 37.56 232.41 34.56 233.00 41.00
C 232.00 41.11 230.27 40.53 230.00 42.00 Z"/>
</g>
<g fill="#F6F8FC" fill-opacity="0.10" stroke="None">
<path d="
M 196.00 24.00 
C 199.29 23.40 199.53 24.54 201.00 26.00
C 201.48 26.48 202.39 26.77 203.00 27.00
C 202.39 26.28 202.01 24.92 202.00 24.00
C 202.00 23.50 202.00 23.00 202.00 23.00
C 200.28 22.50 199.97 22.62 199.00 21.00
C 199.00 21.00 198.35 21.23 198.00 21.00
C 199.30 23.27 197.43 22.82 196.00 24.00 Z"/>
</g>
<g fill="#F7FAFC" fill-opacity="0.20" stroke="None">
<path d="
M 29.00 33.00 
C 30.67 29.95 31.12 24.47 32.00 22.00
C 30.21 25.54 28.72 28.85 29.00 33.00 Z"/>
</g>
<g fill="#E1E4F0" fill-opacity="0.17" stroke="None">
<path d="
M 50.00 31.00 
C 50.45 29.02 53.71 23.16 56.00 22.00
C 52.56 23.40 50.18 27.57 50.00 31.00 Z"/>
</g>
<g fill="#FCFDFF" fill-opacity="0.11" stroke="None">
<path d="
M 159.00 30.00 
C 161.76 28.07 164.23 23.53 167.00 22.00
C 164.44 23.18 160.27 27.41 159.00 30.00 Z"/>
</g>
<g fill="#EEEEF4" fill-opacity="0.16" stroke="None">
<path d="
M 181.00 27.00 
C 181.79 27.87 183.66 28.95 184.00 30.00
C 183.56 27.25 179.65 23.22 177.00 22.00
C 178.31 22.72 179.91 25.79 181.00 27.00 Z"/>
</g>
<g fill="#BBC1D7" fill-opacity="0.42" stroke="None">
<path d="
M 75.00 30.00 
C 77.46 28.76 80.48 25.65 81.00 23.00
C 79.94 24.66 76.86 28.85 75.00 30.00 Z"/>
</g>
<g fill="#8A98C6" fill-opacity="0.68" stroke="None">
<path d="
M 202.00 24.00 
C 204.07 24.28 206.93 24.28 209.00 24.00
C 209.00 24.00 208.85 23.05 209.00 23.00
C 206.93 22.72 204.07 22.72 202.00 23.00
C 202.00 23.00 202.00 23.50 202.00 24.00 Z"/>
</g>
<g fill="#FCF4E1" fill-opacity="0.20" stroke="None">
<path d="
M 19.00 29.00 
C 18.85 27.25 16.56 27.27 16.00 26.00
C 17.67 26.39 18.24 25.07 19.00 24.00
C 17.56 24.85 15.60 25.18 15.00 27.00
C 16.41 27.55 17.60 28.43 19.00 29.00 Z"/>
</g>
<g fill="#FBD985" fill-opacity="0.78" stroke="None">
<path d="
M 7.00 31.00 
C 6.09 33.18 5.80 34.69 3.00 35.00
C 2.01 35.11 0.99 34.91 0.00 35.00
L 0.00 36.00
C 5.95 34.80 5.87 43.14 8.00 45.00
C 9.70 45.34 10.40 43.06 11.00 42.00
C 10.97 38.03 14.66 36.35 18.00 36.00
C 12.64 34.34 11.76 27.57 8.00 25.00
C 7.57 26.87 7.72 29.28 7.00 31.00 Z"/>
</g>
<g fill="#EAEFF5" fill-opacity="0.19" stroke="None">
<path d="
M 107.00 30.00 
C 107.96 30.93 110.34 31.96 111.00 33.00
C 109.58 30.18 105.71 26.66 103.00 25.00
C 104.44 26.04 105.65 28.70 107.00 30.00 Z"/>
</g>
<g fill="#F7FAFE" fill-opacity="0.17" stroke="None">
<path d="
M 228.00 25.00 
C 225.56 25.67 225.45 25.77 223.00 25.00
C 226.12 26.54 224.21 26.71 228.00 25.00 Z"/>
</g>
<g fill="#FFFFFF" fill-opacity="0.04" stroke="None">
<path d="
M 245.00 29.00 
C 245.76 29.71 247.38 30.27 248.00 31.00
C 246.65 28.79 244.30 26.34 242.00 25.00
C 243.09 25.79 243.95 28.02 245.00 29.00 Z"/>
</g>
<g fill="#B5BFDD" fill-opacity="0.46" stroke="None">
<path d="
M 145.00 27.00 
C 148.07 28.25 148.72 31.39 147.00 34.00
C 148.77 31.69 150.09 26.16 145.00 26.00
C 145.00 26.00 145.20 26.60 145.00 27.00 Z"/>
</g>
<g fill="#C6CCE2" fill-opacity="0.40" stroke="None">
<path d="
M 202.00 28.00 
C 202.80 28.40 204.16 27.68 205.00 28.00
C 205.59 33.76 204.33 39.01 202.00 44.00
C 202.13 43.78 203.00 44.00 203.00 44.00
C 205.56 39.72 208.79 29.15 203.00 27.00
C 202.39 26.77 201.48 26.48 201.00 26.00
C 201.06 26.15 202.03 28.19 202.00 28.00 Z"/>
</g>
<g fill="#FFFFFF" fill-opacity="0.02" stroke="None">
<path d="
M 77.00 33.00 
C 78.42 31.37 81.27 28.35 83.00 27.00
C 80.66 28.56 78.70 30.71 77.00 33.00 Z"/>
</g>
<g fill="#5A72BE" fill-opacity="0.99" stroke="None">
<path d="
M 146.00 47.00 
C 145.68 46.89 145.06 45.30 145.00 45.00
C 145.00 45.00 145.11 44.47 145.00 44.00
C 139.93 37.67 144.17 38.31 147.00 34.00
C 148.72 31.39 148.07 28.25 145.00 27.00
C 134.06 32.59 141.52 40.61 144.00 49.00
C 145.64 50.24 145.94 47.03 146.00 47.00 Z"/>
</g>
<g fill="#5A6FBC" fill-opacity="0.98" stroke="None">
<path d="
M 181.00 47.00 
C 180.75 46.80 181.00 46.00 181.00 46.00
C 179.55 44.19 178.56 42.40 178.00 40.00
C 178.00 40.00 177.94 39.49 178.00 39.00
C 175.54 35.74 182.58 34.43 184.00 32.00
C 184.11 31.53 184.08 30.49 184.00 30.00
C 183.66 28.95 181.79 27.87 181.00 27.00
C 169.93 31.56 176.84 40.61 179.00 49.00
C 180.86 49.34 180.67 48.16 181.00 47.00 Z"/>
</g>
<g fill="#FAFCFE" fill-opacity="0.11" stroke="None">
<path d="
M 181.00 46.00 
C 181.00 46.00 180.75 46.80 181.00 47.00
C 184.33 49.72 186.36 41.68 187.07 39.07 C 187.79 36.47 190.33 30.61 192.00 28.00
C 189.18 30.93 183.23 47.15 181.00 46.00 Z"/>
</g>
<g fill="#576DBC" fill-opacity="1.00" stroke="None">
<path d="
M 202.00 48.00 
C 202.15 46.69 201.81 45.31 202.00 44.00
C 204.33 39.01 205.59 33.76 205.00 28.00
C 204.16 27.68 202.80 28.40 202.00 28.00
C 202.77 32.87 192.15 47.46 202.00 48.00 Z"/>
</g>
<g fill="#F1F3F5" fill-opacity="0.09" stroke="None">
<path d="
M 203.00 44.00 
C 203.00 44.00 202.13 43.78 202.00 44.00
C 201.81 45.31 202.15 46.69 202.00 48.00
C 209.34 48.40 211.15 34.01 213.00 29.00
C 211.51 31.76 204.10 47.67 203.00 44.00 Z"/>
</g>
<g fill="#99A5CE" fill-opacity="0.81" stroke="None">
<path d="
M 246.00 31.00 
C 246.67 31.69 248.50 32.29 249.00 33.00
C 248.63 32.52 248.34 31.57 248.00 31.00
C 247.38 30.27 245.76 29.71 245.00 29.00
C 245.52 30.13 245.15 30.13 246.00 31.00 Z"/>
</g>
<g fill="#FDF8EA" fill-opacity="0.14" stroke="None">
<path d="
M 22.00 30.00 
C 20.52 31.08 20.18 32.48 19.00 30.00
C 19.66 34.84 20.84 31.18 22.00 30.00 Z"/>
</g>
<g fill="#ECF1F7" fill-opacity="0.17" stroke="None">
<path d="
M 62.00 34.00 
C 62.18 33.97 62.99 34.30 64.00 34.00
C 66.04 33.39 66.60 32.87 69.00 34.00
C 67.80 34.36 70.10 31.35 71.00 31.00
C 69.58 31.10 65.91 31.48 65.00 30.00
C 65.67 32.31 64.28 32.72 62.00 34.00 Z"/>
</g>
<g fill="#5B73BD" fill-opacity="0.96" stroke="None">
<path d="
M 112.00 47.00 
C 111.07 44.10 112.32 40.05 112.00 37.00
C 111.82 35.31 111.75 34.49 111.00 33.00
C 110.34 31.96 107.96 30.93 107.00 30.00
C 109.84 35.58 109.00 42.06 108.00 48.00
C 109.70 48.29 110.90 47.88 112.00 47.00 Z"/>
</g>
<g fill="#FDF5DD" fill-opacity="0.24" stroke="None">
<path d="
M 3.00 35.00 
C 5.80 34.69 6.09 33.18 7.00 31.00
C 6.47 32.02 4.18 34.66 3.00 35.00 Z"/>
</g>
<g fill="#F8FBFD" fill-opacity="0.12" stroke="None">
<path d="
M 145.00 45.00 
C 145.06 45.30 145.68 46.89 146.00 47.00
C 151.37 44.78 157.02 36.50 159.00 31.00
C 155.49 33.29 149.04 47.93 145.00 45.00 Z"/>
</g>
<g fill="#5A70BD" fill-opacity="0.98" stroke="None">
<path d="
M 251.00 44.00 
C 251.30 42.54 251.09 40.49 251.00 39.00
C 250.89 38.25 249.62 33.89 249.00 33.00
C 248.50 32.29 246.67 31.69 246.00 31.00
C 247.39 36.56 247.51 42.77 245.00 48.00
C 248.04 48.98 250.51 46.39 251.00 44.00 Z"/>
</g>
<g fill="#C7CCE3" fill-opacity="0.33" stroke="None">
<path d="
M 178.00 39.00 
C 178.46 35.24 183.22 35.37 184.00 32.00
C 182.58 34.43 175.54 35.74 178.00 39.00 Z"/>
</g>
<g fill="#CAD9F0" fill-opacity="0.62" stroke="None">
<path d="
M 64.00 34.00 
C 67.45 34.00 66.69 35.95 69.00 37.00
C 70.00 37.46 72.19 36.78 73.00 38.00
C 72.25 36.90 70.13 34.53 69.00 34.00
C 66.60 32.87 66.04 33.39 64.00 34.00 Z"/>
</g>
<g fill="#C6CAE4" fill-opacity="0.33" stroke="None">
<path d="
M 251.00 39.00 
C 250.83 36.16 250.58 35.08 249.00 33.00
C 249.62 33.89 250.89 38.25 251.00 39.00 Z"/>
</g>
<g fill="#F4F7FB" fill-opacity="0.16" stroke="None">
<path d="
M 40.00 60.00 
C 41.48 59.99 42.08 59.27 43.00 59.00
C 40.21 58.66 38.69 55.69 37.00 54.00
C 31.37 48.37 28.19 42.52 29.00 34.00
C 25.93 38.15 29.72 46.08 31.25 49.75 C 32.78 53.43 41.22 56.00 40.00 60.00 Z"/>
</g>
<g fill="#D4D9EA" fill-opacity="0.25" stroke="None">
<path d="
M 145.00 44.00 
C 143.54 37.78 143.32 38.81 147.00 34.00
C 144.17 38.31 139.93 37.67 145.00 44.00 Z"/>
</g>
<g fill="#FAFDFE" fill-opacity="0.09" stroke="None">
<path d="
M 113.00 44.00 
C 112.97 44.50 113.12 45.53 113.00 46.00
C 116.65 43.25 118.73 38.91 121.00 35.00
C 118.56 37.97 113.83 40.28 113.00 44.00 Z"/>
</g>
<g fill="#586FBB" fill-opacity="1.00" stroke="None">
<path d="
M 125.00 49.00 
C 125.64 48.47 126.59 46.61 127.00 46.00
C 127.40 45.41 127.62 44.54 128.00 44.00
C 130.54 41.77 130.08 38.15 128.00 36.00
C 125.54 40.20 115.08 49.98 125.00 49.00 Z"/>
</g>
<g fill="#5C71BD" fill-opacity="0.98" stroke="None">
<path d="
M 160.00 49.00 
C 160.26 48.79 160.77 48.26 161.00 48.00
C 162.06 46.80 163.20 45.16 164.00 44.00
C 164.41 43.40 164.85 42.72 165.00 42.00
C 165.21 39.80 164.80 37.25 163.00 36.00
C 160.07 39.47 157.90 43.69 155.00 47.00
C 155.91 49.16 157.92 50.66 160.00 49.00 Z"/>
</g>
<g fill="#F9ECD6" fill-opacity="0.33" stroke="None">
<path d="
M 20.00 41.00 
C 20.26 40.72 21.92 39.27 22.00 39.00
C 23.39 34.18 19.64 41.47 20.00 41.00 Z"/>
</g>
<g fill="#596FC0" fill-opacity="0.98" stroke="None">
<path d="
M 23.00 75.00 
C 25.92 77.71 28.68 79.26 32.00 81.00
C 32.00 81.00 32.50 81.00 33.00 81.00
C 36.30 81.00 39.71 81.24 43.00 81.00
C 45.03 80.85 46.17 80.57 48.00 80.00
C 50.43 78.96 53.72 76.70 56.00 75.00
C 57.70 73.81 58.77 72.56 60.00 71.00
C 62.67 67.62 65.18 63.60 67.00 60.00
C 67.90 57.57 68.40 55.48 69.00 53.00
C 69.32 51.68 69.57 50.32 70.00 49.00
C 71.10 45.65 72.35 42.46 73.00 39.00
C 73.00 39.00 73.23 38.34 73.00 38.00
C 72.19 36.78 70.00 37.46 69.00 37.00
C 65.10 38.44 67.48 46.37 64.78 50.78 C 62.08 55.18 62.58 56.14 58.92 62.92 C 55.25 69.69 46.22 77.19 38.00 77.00 C 29.78 76.81 29.43 78.15 23.00 75.00 Z"/>
</g>
<g fill="#586EBD" fill-opacity="1.00" stroke="None">
<path d="
M 89.00 50.00 
C 89.40 49.42 88.50 47.47 89.00 47.00
C 89.62 44.77 91.81 41.91 94.00 41.00
C 94.47 40.50 96.42 41.40 97.00 41.00
C 94.88 28.07 76.58 47.91 89.00 50.00 Z"/>
</g>
<g fill="#99A9DA" fill-opacity="0.70" stroke="None">
<path d="
M 112.00 47.00 
C 112.28 46.77 112.91 46.35 113.00 46.00
C 113.12 45.53 112.97 44.50 113.00 44.00
C 113.17 41.31 112.49 39.05 112.00 37.00
C 112.32 40.05 111.07 44.10 112.00 47.00 Z"/>
</g>
<g fill="#5A6EBD" fill-opacity="1.00" stroke="None">
<path d="
M 225.00 50.00 
C 224.82 49.93 224.96 48.50 225.00 48.00
C 225.21 45.62 226.73 43.03 229.00 42.00
C 229.41 41.81 230.00 42.00 230.00 42.00
C 230.27 40.53 232.00 41.11 233.00 41.00
C 232.41 34.56 225.48 37.56 222.92 39.92 C 220.37 42.29 220.71 51.47 225.00 50.00 Z"/>
</g>
<g fill="#FAD888" fill-opacity="0.78" stroke="None">
<path d="
M 20.00 41.00 
C 19.57 43.26 16.49 42.78 16.00 45.00
C 18.00 44.70 19.08 46.59 20.00 48.00
C 20.48 47.91 21.00 48.00 21.00 48.00
C 21.25 47.96 22.87 47.13 23.00 47.00
C 23.48 46.53 25.06 43.99 25.00 43.00
C 24.14 41.94 22.98 39.98 22.00 39.00
C 21.92 39.27 20.26 40.72 20.00 41.00 Z"/>
</g>
<g fill="#BFC4DF" fill-opacity="0.38" stroke="None">
<path d="
M 181.00 46.00 
C 180.26 45.46 178.83 41.03 178.00 40.00
C 178.56 42.40 179.55 44.19 181.00 46.00 Z"/>
</g>
<g fill="#B9BFD7" fill-opacity="0.42" stroke="None">
<path d="
M 89.00 47.00 
C 89.27 46.75 90.00 47.00 90.00 47.00
C 91.16 44.82 91.89 43.37 94.00 42.00
C 94.23 41.85 94.00 41.00 94.00 41.00
C 91.81 41.91 89.62 44.77 89.00 47.00 Z"/>
</g>
<g fill="#F4F6FA" fill-opacity="0.13" stroke="None">
<path d="
M 94.00 42.00 
C 98.66 43.14 91.71 52.10 90.00 47.00
C 90.00 47.00 89.27 46.75 89.00 47.00
C 88.50 47.47 89.40 49.42 89.00 50.00
C 93.84 50.82 97.74 45.51 97.00 41.00
C 96.42 41.40 94.47 40.50 94.00 41.00
C 94.00 41.00 94.23 41.85 94.00 42.00 Z"/>
</g>
<g fill="#FBF6E8" fill-opacity="0.18" stroke="None">
<path d="
M 8.00 45.00 
C 10.78 47.42 10.23 43.59 11.00 42.00
C 10.40 43.06 9.70 45.34 8.00 45.00 Z"/>
</g>
<g fill="#000000" fill-opacity="0.00" stroke="None">
<path d="
M 90.00 47.00 
C 91.71 52.10 98.66 43.14 94.00 42.00
C 91.89 43.37 91.16 44.82 90.00 47.00 Z"/>
</g>
<g fill="#F7F9FD" fill-opacity="0.11" stroke="None">
<path d="
M 164.00 44.00 
C 163.74 45.69 163.64 48.53 161.00 48.00
C 160.77 48.26 160.26 48.79 160.00 49.00
C 164.69 48.94 165.75 46.87 165.00 42.00
C 164.85 42.72 164.41 43.40 164.00 44.00 Z"/>
</g>
<g fill="#C4C8DE" fill-opacity="0.35" stroke="None">
<path d="
M 225.00 48.00 
C 225.34 47.77 226.00 48.00 226.00 48.00
C 226.44 45.82 227.51 43.71 229.00 42.00
C 226.73 43.03 225.21 45.62 225.00 48.00 Z"/>
</g>
<g fill="#000000" fill-opacity="0.00" stroke="None">
<path d="
M 226.00 48.00 
C 228.01 49.47 233.84 44.93 233.00 43.00
C 232.36 41.80 231.30 41.84 230.00 42.00
C 230.00 42.00 229.41 41.81 229.00 42.00
C 227.51 43.71 226.44 45.82 226.00 48.00 Z"/>
</g>
<g fill="#FAF8F2" fill-opacity="0.18" stroke="None">
<path d="
M 23.00 47.00 
C 23.38 47.01 24.69 48.61 25.00 49.00
C 26.40 50.77 24.89 49.57 26.00 50.00
C 29.75 47.90 26.30 44.60 25.00 43.00
C 25.06 43.99 23.48 46.53 23.00 47.00 Z"/>
</g>
<g fill="#262728" fill-opacity="0.04" stroke="None">
<path d="
M 128.00 44.00 
C 127.62 44.54 127.40 45.41 127.00 46.00
C 125.19 47.32 129.84 47.02 130.00 45.00
C 129.89 43.42 129.36 42.70 128.00 44.00 Z"/>
</g>
<g fill="#F6F8FC" fill-opacity="0.09" stroke="None">
<path d="
M 226.00 48.00 
C 226.00 48.00 225.34 47.77 225.00 48.00
C 224.96 48.50 224.82 49.93 225.00 50.00
C 227.59 51.08 234.54 45.91 233.00 43.00
C 233.84 44.93 228.01 49.47 226.00 48.00 Z"/>
</g>
<g fill="#F9FAFD" fill-opacity="0.08" stroke="None">
<path d="
M 251.00 44.00 
C 250.40 44.30 254.72 43.91 255.00 44.00
C 256.45 44.47 257.10 46.07 258.00 47.00
C 256.37 45.00 254.87 40.54 251.00 44.00 Z"/>
</g>
<g fill="#1D1E20" fill-opacity="0.03" stroke="None">
<path d="
M 161.00 48.00 
C 163.64 48.53 163.74 45.69 164.00 44.00
C 163.20 45.16 162.06 46.80 161.00 48.00 Z"/>
</g>
<g fill="#D4DCEF" fill-opacity="0.42" stroke="None">
<path d="
M 256.00 48.00 
C 256.47 48.64 259.33 47.51 260.00 48.00
C 260.23 49.83 259.93 51.47 259.00 53.00
C 263.59 50.58 259.50 48.55 258.00 47.00
C 257.10 46.07 256.45 44.47 255.00 44.00
C 255.95 44.67 256.08 46.98 256.00 48.00 Z"/>
</g>
<g fill="#F4F7FB" fill-opacity="0.14" stroke="None">
<path d="
M 127.00 46.00 
C 126.59 46.61 125.64 48.47 125.00 49.00
C 126.36 48.87 130.26 48.84 130.00 45.00
C 129.84 47.02 125.19 47.32 127.00 46.00 Z"/>
</g>
<g fill="#DBDEC0" fill-opacity="0.83" stroke="None">
<path d="
M 21.00 48.00 
C 21.23 48.16 21.17 49.57 21.00 50.00
C 21.77 49.73 24.24 48.75 25.00 49.00
C 24.69 48.61 23.38 47.01 23.00 47.00
C 22.87 47.13 21.25 47.96 21.00 48.00 Z"/>
</g>
<g fill="#E9ECE6" fill-opacity="0.45" stroke="None">
<path d="
M 18.00 49.00 
C 17.83 49.43 18.25 50.76 18.00 51.00
C 18.82 50.63 20.10 50.32 21.00 50.00
C 21.17 49.57 21.23 48.16 21.00 48.00
C 21.00 48.00 20.48 47.91 20.00 48.00
C 19.25 48.14 18.64 48.61 18.00 49.00 Z"/>
</g>
<g fill="#576EC0" fill-opacity="0.98" stroke="None">
<path d="
M 221.00 69.00 
C 222.23 70.11 223.46 72.53 225.00 73.00
C 227.94 73.65 231.37 72.93 234.00 72.00
C 235.10 71.48 236.89 69.83 238.00 69.00
C 239.69 67.82 241.50 66.31 243.00 65.00
C 244.26 63.67 244.34 63.74 246.00 63.00
C 251.43 60.59 254.62 58.19 259.00 54.00
C 259.00 54.00 258.77 53.34 259.00 53.00
C 259.93 51.47 260.23 49.83 260.00 48.00
C 259.33 47.51 256.47 48.64 256.00 48.00
C 255.29 56.68 244.76 55.90 239.75 59.75 C 234.75 63.60 229.05 71.31 221.00 69.00 Z"/>
</g>
<g fill="#F8FAFD" fill-opacity="0.18" stroke="None">
<path d="
M 14.00 55.00 
C 14.61 53.28 16.53 51.66 18.00 51.00
C 18.25 50.76 17.83 49.43 18.00 49.00
C 15.80 50.35 14.23 52.38 14.00 55.00 Z"/>
</g>
<g fill="#E4EBF7" fill-opacity="0.22" stroke="None">
<path d="
M 69.00 53.00 
C 68.97 54.00 70.65 57.87 71.00 59.00
C 70.63 56.57 69.89 50.74 70.00 49.00
C 69.57 50.32 69.32 51.68 69.00 53.00 Z"/>
</g>
<g fill="#5B73B9" fill-opacity="1.00" stroke="None">
<path d="
M 37.00 54.00 
C 38.69 55.69 40.21 58.66 43.00 59.00
C 47.67 59.50 52.59 54.35 53.00 50.00
C 48.73 54.05 42.74 56.66 37.00 54.00 Z"/>
</g>
<g fill="#6176B3" fill-opacity="1.00" stroke="None">
<path d="
M 30.00 57.00 
C 29.75 56.77 30.00 56.00 30.00 56.00
C 30.00 56.00 29.98 55.50 30.00 55.00
C 28.36 54.02 29.07 50.82 26.00 52.00
C 26.92 53.88 27.80 56.17 30.00 57.00 Z"/>
</g>
<g fill="#D1D5E5" fill-opacity="0.28" stroke="None">
<path d="
M 246.00 63.00 
C 251.51 61.32 256.68 60.43 259.00 54.00
C 254.62 58.19 251.43 60.59 246.00 63.00 Z"/>
</g>
<g fill="#F7F9FE" fill-opacity="0.17" stroke="None">
<path d="
M 30.00 57.00 
C 32.08 58.94 35.22 59.89 38.00 60.00
C 35.47 58.76 32.85 57.07 30.00 56.00
C 30.00 56.00 29.75 56.77 30.00 57.00 Z"/>
</g>
<g fill="#5970C0" fill-opacity="0.96" stroke="None">
<path d="
M 78.00 68.00 
C 79.10 68.98 80.77 71.40 82.00 72.00
C 85.04 73.14 88.61 73.42 92.00 73.00
C 93.38 72.72 95.17 71.25 97.00 71.00
C 97.00 71.00 97.56 71.16 98.00 71.00
C 99.74 69.18 104.38 63.61 107.00 63.00
C 108.21 62.72 109.75 63.06 111.00 63.00
C 114.31 61.45 113.21 59.23 113.00 56.00
C 100.48 57.19 92.03 74.34 78.00 68.00 Z"/>
</g>
<g fill="#FDFFFF" fill-opacity="0.05" stroke="None">
<path d="
M 14.00 64.00 
C 13.74 61.74 14.00 59.28 14.00 57.00
C 12.83 59.76 13.33 61.28 14.00 64.00 Z"/>
</g>
<g fill="#5E74C1" fill-opacity="0.95" stroke="None">
<path d="
M 200.00 87.00 
C 201.32 88.12 201.37 90.12 203.00 91.00
C 208.58 92.93 209.90 89.30 212.00 85.00
C 212.58 83.38 213.49 81.36 214.00 80.00
C 214.48 78.19 214.73 76.94 215.00 75.00
C 215.42 71.98 216.88 68.93 217.00 66.00
C 214.89 63.80 217.22 59.83 215.00 58.00
C 209.54 63.38 212.66 88.81 200.00 87.00 Z"/>
</g>
<g fill="#5E74C1" fill-opacity="0.94" stroke="None">
<path d="
M 121.00 68.00 
C 121.69 68.67 122.29 70.50 123.00 71.00
C 123.90 71.63 128.24 72.88 129.00 73.00
C 136.07 73.64 141.42 71.83 147.00 68.00
C 149.94 65.40 150.16 62.53 149.00 59.00
C 141.32 64.18 131.40 73.03 121.00 68.00 Z"/>
</g>
<g fill="#5C73C1" fill-opacity="0.96" stroke="None">
<path d="
M 160.00 72.00 
C 160.00 72.00 160.50 72.00 161.00 72.00
C 165.21 72.00 169.84 72.56 174.00 72.00
C 177.02 71.22 179.73 70.40 182.00 68.00
C 182.66 67.30 183.74 65.91 184.00 65.00
C 183.61 63.13 184.87 60.14 183.00 59.00
C 176.09 66.32 166.07 71.46 156.00 68.00
C 156.74 69.63 158.65 71.14 160.00 72.00 Z"/>
</g>
<g fill="#CCD1E3" fill-opacity="0.28" stroke="None">
<path d="
M 60.00 71.00 
C 60.16 70.77 61.00 71.00 61.00 71.00
C 63.76 67.50 65.49 64.08 67.00 60.00
C 65.18 63.60 62.67 67.62 60.00 71.00 Z"/>
</g>
<g fill="#E4E6F0" fill-opacity="0.16" stroke="None">
<path d="
M 98.00 71.00 
C 101.68 69.67 103.91 64.05 107.00 63.00
C 104.38 63.61 99.74 69.18 98.00 71.00 Z"/>
</g>
<g fill="#EFF0F6" fill-opacity="0.11" stroke="None">
<path d="
M 82.00 72.00 
C 80.77 71.40 79.10 68.98 78.00 68.00
C 76.62 66.77 74.17 65.49 73.00 64.00
C 75.07 67.10 78.45 70.67 82.00 72.00 Z"/>
</g>
<g fill="#FFFFFF" fill-opacity="0.02" stroke="None">
<path d="
M 121.00 70.00 
C 120.18 69.30 119.69 67.74 119.00 67.00
C 118.06 65.99 116.22 64.81 115.00 64.00
C 117.09 65.69 118.49 68.47 121.00 70.00 Z"/>
</g>
<g fill="#EBEEF5" fill-opacity="0.14" stroke="None">
<path d="
M 182.00 68.00 
C 183.29 67.83 183.75 66.30 185.00 66.00
C 187.10 68.55 189.59 72.34 193.00 73.00
C 191.47 72.02 190.32 70.24 189.00 69.00
C 187.90 67.97 184.66 66.37 184.00 65.00
C 183.74 65.91 182.66 67.30 182.00 68.00 Z"/>
</g>
<g fill="#F2F2F8" fill-opacity="0.10" stroke="None">
<path d="
M 238.00 69.00 
C 237.77 69.16 238.00 70.00 238.00 70.00
C 240.01 68.58 241.32 66.78 243.00 65.00
C 241.50 66.31 239.69 67.82 238.00 69.00 Z"/>
</g>
<g fill="#D7DAE9" fill-opacity="0.25" stroke="None">
<path d="
M 215.00 75.00 
C 216.54 73.37 216.60 70.30 217.00 68.00
C 220.38 68.49 221.67 72.26 225.00 73.00
C 223.46 72.53 222.23 70.11 221.00 69.00
C 220.06 68.15 217.67 67.11 217.00 66.00
C 216.88 68.93 215.42 71.98 215.00 75.00 Z"/>
</g>
<g fill="#99A7CC" fill-opacity="0.76" stroke="None">
<path d="
M 121.00 70.00 
C 121.62 70.38 122.39 70.53 123.00 71.00
C 122.29 70.50 121.69 68.67 121.00 68.00
C 119.99 67.02 120.26 67.58 119.00 67.00
C 119.69 67.74 120.18 69.30 121.00 70.00 Z"/>
</g>
<g fill="#5B72BD" fill-opacity="0.99" stroke="None">
<path d="
M 189.00 69.00 
C 190.32 70.24 191.47 72.02 193.00 73.00
C 193.00 73.00 193.50 73.00 194.00 73.00
C 194.63 73.00 196.46 73.30 197.00 73.00
C 197.91 71.06 198.61 69.07 199.00 67.00
C 195.71 67.75 192.73 69.99 189.00 69.00 Z"/>
</g>
<g fill="#C6C9DE" fill-opacity="0.33" stroke="None">
<path d="
M 234.00 72.00 
C 235.35 71.53 237.00 71.29 238.00 70.00
C 238.00 70.00 237.77 69.16 238.00 69.00
C 236.89 69.83 235.10 71.48 234.00 72.00 Z"/>
</g>
<g fill="#FFFFFF" fill-opacity="0.02" stroke="None">
<path d="
M 56.00 75.00 
C 55.77 75.16 56.00 76.00 56.00 76.00
C 57.96 74.54 59.46 72.95 61.00 71.00
C 61.00 71.00 60.16 70.77 60.00 71.00
C 58.77 72.56 57.70 73.81 56.00 75.00 Z"/>
</g>
<g fill="#C7CCE1" fill-opacity="0.33" stroke="None">
<path d="
M 92.00 73.00 
C 94.11 72.74 95.65 72.66 97.00 71.00
C 95.17 71.25 93.38 72.72 92.00 73.00 Z"/>
</g>
<g fill="#C8D1E3" fill-opacity="0.29" stroke="None">
<path d="
M 129.00 73.00 
C 128.24 72.88 123.90 71.63 123.00 71.00
C 125.12 72.61 126.14 72.74 129.00 73.00 Z"/>
</g>
<g fill="#9DA9D1" fill-opacity="0.56" stroke="None">
<path d="
M 174.00 72.00 
C 169.84 72.56 165.21 72.00 161.00 72.00
C 164.16 74.34 170.69 72.86 174.00 72.00 Z"/>
</g>
<g fill="#FCFDFF" fill-opacity="0.07" stroke="None">
<path d="
M 195.00 78.00 
C 195.16 76.94 196.51 74.42 197.00 73.00
C 196.46 73.30 194.63 73.00 194.00 73.00
C 195.34 74.11 194.84 76.51 195.00 78.00 Z"/>
</g>
<g fill="#FBE1A4" fill-opacity="0.63" stroke="None">
<path d="
M 252.00 81.00 
C 252.04 79.29 250.75 78.38 250.00 77.00
C 250.18 75.35 249.83 73.49 248.00 73.00
C 246.75 75.67 245.56 78.55 243.00 80.00
C 245.66 81.99 246.81 84.74 249.00 87.00
C 248.55 84.34 251.13 82.73 252.00 81.00 Z"/>
</g>
<g fill="#C6CDE3" fill-opacity="0.38" stroke="None">
<path d="
M 32.00 81.00 
C 28.68 79.26 25.92 77.71 23.00 75.00
C 22.31 74.66 21.68 74.41 21.00 74.00
C 23.93 77.10 26.63 80.89 32.00 81.00 Z"/>
</g>
<g fill="#D1D5E5" fill-opacity="0.27" stroke="None">
<path d="
M 48.00 80.00 
C 50.85 79.12 53.66 78.05 56.00 76.00
C 56.00 76.00 55.77 75.16 56.00 75.00
C 53.72 76.70 50.43 78.96 48.00 80.00 Z"/>
</g>
<g fill="#FCF8E7" fill-opacity="0.17" stroke="None">
<path d="
M 252.00 81.00 
C 253.19 81.15 254.51 80.41 254.00 79.00
C 252.63 79.01 250.90 78.04 250.00 77.00
C 250.75 78.38 252.04 79.29 252.00 81.00 Z"/>
</g>
<g fill="#FBDC91" fill-opacity="0.74" stroke="None">
<path d="
M 269.00 87.00 
C 261.57 89.43 264.80 78.27 259.00 79.00
C 259.41 83.38 257.15 88.65 252.00 88.00
C 256.34 90.20 258.48 97.18 262.00 100.00
C 261.17 96.56 263.42 94.01 264.00 91.00
C 266.14 90.39 269.99 90.27 269.00 87.00 Z"/>
</g>
<g fill="#CCD0E3" fill-opacity="0.31" stroke="None">
<path d="
M 212.00 85.00 
C 212.86 83.23 213.43 82.15 214.00 80.00
C 213.49 81.36 212.58 83.38 212.00 85.00 Z"/>
</g>
<g fill="#D4D7E7" fill-opacity="0.25" stroke="None">
<path d="
M 43.00 81.00 
C 39.71 81.24 36.30 81.00 33.00 81.00
C 35.92 83.16 40.07 81.55 43.00 81.00 Z"/>
</g>
<g fill="#E5E8F3" fill-opacity="0.21" stroke="None">
<path d="
M 203.00 91.00 
C 201.37 90.12 201.32 88.12 200.00 87.00
C 198.95 86.11 196.87 86.08 196.00 85.00
C 197.28 87.56 200.61 90.17 203.00 91.00 Z"/>
</g>
<g fill="#FCEFCF" fill-opacity="0.39" stroke="None">
<path d="
M 248.00 95.00 
C 250.24 93.07 248.66 93.64 251.00 95.00
C 251.29 93.32 249.69 91.68 248.00 92.00
C 247.60 92.55 248.50 94.57 248.00 95.00 Z"/>
</g>
<g fill="#FADF93" fill-opacity="0.69" stroke="None">
<path d="
M 248.00 95.00 
C 246.51 96.29 245.57 98.07 246.00 100.00
C 246.76 101.49 248.52 103.07 249.00 105.00
L 250.00 105.00
C 249.49 100.66 254.03 99.99 255.00 97.00
C 253.31 97.21 252.03 95.88 251.00 95.00
C 248.66 93.64 250.24 93.07 248.00 95.00 Z"/>
</g>
<g fill="#FCF9EF" fill-opacity="0.14" stroke="None">
<path d="
M 246.00 100.00 
C 245.57 98.07 246.51 96.29 248.00 95.00
C 246.47 95.25 245.82 97.55 244.00 97.00
C 243.11 98.77 245.55 99.12 246.00 100.00 Z"/>
</g>
</svg>